<svg xmlns="http://www.w3.org/2000/svg" viewBox="0 0 1000 1000" width="1000" height="1000"><defs><radialGradient id="bg" cx="47%" cy="42%" r="72%"><stop offset="0" stop-color="#293d48"/><stop offset=".46" stop-color="#172731"/><stop offset="1" stop-color="#0c151d"/></radialGradient><radialGradient id="shadow"><stop offset="0" stop-color="#030a10" stop-opacity=".85"/><stop offset=".62" stop-color="#030a10" stop-opacity=".42"/><stop offset="1" stop-color="#030a10" stop-opacity="0"/></radialGradient><linearGradient id="shell" x1="0%" y1="20%" x2="100%" y2="65%"><stop offset="0" stop-color="#617779"/><stop offset=".17" stop-color="#364e59"/><stop offset=".44" stop-color="#142731"/><stop offset=".76" stop-color="#203d4d"/><stop offset="1" stop-color="#6c929f"/></linearGradient><linearGradient id="rim" x1="10%" y1="0%" x2="86%" y2="100%"><stop offset="0" stop-color="#fff7df"/><stop offset=".36" stop-color="#e1e5d9"/><stop offset=".68" stop-color="#aebeb8"/><stop offset="1" stop-color="#71929c"/></linearGradient><linearGradient id="cut" x1="0%" y1="0%" x2="90%" y2="100%"><stop offset="0" stop-color="#d7eee7"/><stop offset=".4" stop-color="#8eb8c6"/><stop offset="1" stop-color="#335969"/></linearGradient><radialGradient id="well" cx="48%" cy="32%" r="73%"><stop offset="0" stop-color="#304c5b"/><stop offset=".65" stop-color="#122934"/><stop offset="1" stop-color="#07141d"/></radialGradient><linearGradient id="coreTop" x1="0%" y1="0%" x2="100%" y2="100%"><stop offset="0" stop-color="#f5f2df"/><stop offset=".45" stop-color="#cbdbd7"/><stop offset="1" stop-color="#88b5c7"/></linearGradient><linearGradient id="coreSide" x1="0%" y1="0%" x2="100%" y2="50%"><stop offset="0" stop-color="#304e5c"/><stop offset=".55" stop-color="#477e96"/><stop offset="1" stop-color="#8ed5f5"/></linearGradient><linearGradient id="light" x1="0%" y1="0%" x2="100%" y2="60%"><stop offset="0" stop-color="#69caff" stop-opacity=".02"/><stop offset=".32" stop-color="#69caff" stop-opacity=".19"/><stop offset=".78" stop-color="#69caff" stop-opacity=".09"/><stop offset="1" stop-color="#69caff" stop-opacity="0"/></linearGradient><linearGradient id="orbit" x1="0%" y1="60%" x2="100%" y2="40%"><stop offset="0" stop-color="#71949e"/><stop offset=".2" stop-color="#ced8d0"/><stop offset=".5" stop-color="#f4edda"/><stop offset=".8" stop-color="#becfca"/><stop offset="1" stop-color="#5f91a8"/></linearGradient><linearGradient id="orange" x1="0%" y1="0%" x2="100%" y2="100%"><stop offset="0" stop-color="#ffd09b"/><stop offset=".38" stop-color="#ff996b"/><stop offset="1" stop-color="#ed674d"/></linearGradient><linearGradient id="orangeSide" x1="0%" y1="0%" x2="100%" y2="60%"><stop offset="0" stop-color="#8c3d36"/><stop offset="1" stop-color="#de7153"/></linearGradient><clipPath id="wallClip"><path d="M286 450 C286 535 382 604 500 604 C618 604 714 535 714 450 L714 512 C714 597 618 666 500 666 C382 666 286 597 286 512Z"/></clipPath><clipPath id="coreWell"><path d="M484 383 L572 433 L542 450 L569 465 L540 482 L484 450 L454 467 L426 450 L454 433 L426 416Z"/></clipPath></defs><rect width="1000" height="1000" fill="url(#bg)"/><ellipse cx="483" cy="674" rx="369" ry="143" transform="rotate(-24 483 674)" fill="url(#shadow)"/><path d="M123 728 C68 546 192 301 428 192 C615 105 789 131 872 250" fill="none" stroke="#58747d" stroke-width="1" opacity=".12"/><path d="M165 789 C335 904 634 815 812 626" fill="none" stroke="#69caff" stroke-width="1" opacity=".08"/><g transform="rotate(-24 500 500)"><path d="M94 450 C132 302 312 192 501 193 C690 194 866 303 908 447" fill="none" stroke="#557987" stroke-width="1" opacity=".25"/><path d="M111 416 C174 281 336 211 491 213" fill="none" stroke="#6d919e" stroke-width="1" opacity=".17"/><path d="M563 231 C608 201 687 182 728 203 C773 226 760 266 785 289 C811 313 847 302 870 333" fill="none" stroke="#69caff" stroke-width="15" opacity=".025"/><path d="M563 231 C608 201 687 182 728 203 C773 226 760 266 785 289 C811 313 847 302 870 333" fill="none" stroke="#69caff" stroke-width="1.1" opacity=".28"/><path d="M566 238 C611 210 681 192 720 212 C761 234 751 274 778 299 C804 323 836 316 857 339" fill="none" stroke="#69caff" stroke-width=".7" opacity=".16"/><path d="M719 197 L735 205 L724 218 L708 210Z" fill="#69caff" opacity=".07"/><path d="M719 197 L735 205 L724 218" fill="none" stroke="#8ccde8" stroke-width=".8" opacity=".35"/><path d="M107 443 A402 274 0 0 1 893 443 L879 446 A388 260 0 0 0 121 446Z" fill="#304954"/><path d="M107 443 A402 274 0 0 1 893 443" fill="none" stroke="#7898a1" stroke-width="1.4"/><path d="M121 446 A388 260 0 0 1 879 446" fill="none" stroke="#0a1922" stroke-width="2"/><path d="M150 368 C233 277 367 231 500 231" fill="none" stroke="#cdd8cf" stroke-width="3"/><path d="M605 242 C709 261 817 320 865 399" fill="none" stroke="#69caff" stroke-width="1.5" opacity=".62"/><g stroke="#9bb6ba" stroke-width="1.4"><path d="M110 428 L126 433 M127 394 L143 401 M151 361 L166 371 M181 331 L194 342 M215 304 L229 317 M255 281 L266 295 M299 261 L309 278 M347 244 L353 261 M397 234 L401 251 M448 226 L450 243 M500 223 L500 243 M553 226 L550 243 M605 233 L600 251 M655 244 L648 261 M702 261 L692 278 M747 281 L735 296 M786 304 L772 318 M821 332 L806 344 M850 362 L834 372 M874 395 L857 403 M890 429 L872 434"/></g><g stroke="#69caff" stroke-width="1" opacity=".55"><path d="M599 218 L597 227 M612 220 L609 231 M629 224 L626 234 M641 227 L638 237 M660 233 L656 244 M674 238 L670 247 M691 246 L686 256 M706 252 L701 261 M723 262 L717 272 M736 270 L730 279 M752 279 L745 289 M765 290 L758 299 M781 302 L774 310"/></g><path d="M396 222 L402 239 L408 224Z" fill="#f1b58b"/><path d="M490 246 L510 246 L512 303 L488 303Z" fill="#172d37" stroke="#607a80" stroke-width="1"/><path d="M492 247 L498 247 L496 292 L491 293Z" fill="#b9c7be"/><path d="M503 249 L507 249 L508 285" fill="none" stroke="#69caff" stroke-width="1" opacity=".55"/><ellipse cx="500" cy="286" rx="5" ry="3.5" fill="#091a23" stroke="#809a9e" stroke-width="1"/><path d="M143 465 L280 419 L303 432 L157 484Z" fill="#243f4a"/><path d="M143 465 L280 419 L284 424 L150 470Z" fill="#9daea9"/><path d="M165 475 L278 436" fill="none" stroke="#69caff" stroke-width="1" opacity=".35"/><path d="M762 395 L841 370 L852 384 L722 425 L708 412Z" fill="#243d49" stroke="#486873" stroke-width="1"/><path d="M769 397 L842 374" fill="none" stroke="#90a8aa" stroke-width="2"/><path d="M284 510 C284 599 381 672 500 672 C619 672 716 599 716 510 L716 522 C716 611 619 683 500 683 C381 683 284 611 284 522Z" fill="#101f29"/><path d="M286 511 C286 596 382 665 500 665 C618 665 714 596 714 511 L714 524 C714 609 618 678 500 678 C382 678 286 609 286 524Z" fill="#344f5b"/><path d="M286 524 C286 609 382 678 500 678 C618 678 714 609 714 524" fill="none" stroke="#6a939e" stroke-width="1.3"/><path d="M286 450 C286 535 382 604 500 604 C618 604 714 535 714 450 L714 512 C714 597 618 666 500 666 C382 666 286 597 286 512Z" fill="url(#shell)"/><g clip-path="url(#wallClip)" fill="none"><path d="M283 461 C283 547 381 616 500 616 C619 616 717 547 717 461 M283 471 C283 557 381 626 500 626 C619 626 717 557 717 471 M283 481 C283 567 381 636 500 636 C619 636 717 567 717 481 M283 491 C283 577 381 646 500 646 C619 646 717 577 717 491 M283 501 C283 587 381 656 500 656 C619 656 717 587 717 501" stroke="#081923" stroke-width="3"/><path d="M284 459 C284 544 382 613 500 613 C618 613 716 544 716 459 M284 479 C284 564 382 633 500 633 C618 633 716 564 716 479 M284 499 C284 584 382 653 500 653 C618 653 716 584 716 499" stroke="#89abb1" stroke-width=".8" opacity=".44"/><path d="M294 481 L294 553 M310 514 L310 581 M331 541 L331 608 M355 561 L355 630 M382 578 L382 646 M412 591 L412 659 M443 600 L443 668 M475 604 L475 674 M507 604 L507 674 M539 601 L539 671 M570 595 L570 665 M600 584 L600 654 M628 568 L628 639 M653 548 L653 618 M675 523 L675 593 M693 493 L693 564 M706 461 L706 533" stroke="#8cabb2" stroke-width=".7" opacity=".27"/><path d="M349 525 L424 550 L531 689 L431 689Z" fill="#a7bcc0" opacity=".035" stroke="none"/><path d="M620 577 C666 552 695 514 704 477" stroke="#69caff" stroke-width="1.5" opacity=".75"/><path d="M626 585 C670 560 698 524 706 487" stroke="#69caff" stroke-width="1" opacity=".42"/></g><path d="M294 498 C309 583 398 651 498 658" fill="none" stroke="#a1b8b6" stroke-width="1" opacity=".42"/><ellipse cx="500" cy="450" rx="214" ry="154" fill="#172d37"/><ellipse cx="500" cy="449" rx="182" ry="130" fill="url(#well)"/><path d="M324 449 C324 517 403 572 500 572 C597 572 676 517 676 449 L676 469 C676 537 597 592 500 592 C403 592 324 537 324 469Z" fill="#0a1c27"/><path d="M331 462 C341 525 413 574 500 574 C587 574 659 525 669 462" fill="none" stroke="#528299" stroke-width="1.2"/><ellipse cx="500" cy="461" rx="162" ry="110" fill="#1b3542" stroke="#486676" stroke-width="1"/><ellipse cx="500" cy="461" rx="151" ry="102" fill="none" stroke="#081c27" stroke-width="3"/><ellipse cx="500" cy="461" rx="148" ry="100" fill="none" stroke="#6f929c" stroke-width=".8" opacity=".55"/><ellipse cx="500" cy="461" rx="136" ry="91" fill="none" stroke="#081a25" stroke-width="2"/><ellipse cx="500" cy="461" rx="133" ry="89" fill="none" stroke="#6091a7" stroke-width=".7" opacity=".5"/><path d="M642 377 L673 359 A214 154 0 0 1 706 492 L669 483 A176 123 0 0 0 642 377Z" fill="#0c202c"/><path d="M661 406 C679 426 689 450 689 474" fill="none" stroke="#4b7384" stroke-width="1"/><path d="M669 402 C688 425 698 449 698 476" fill="none" stroke="#294754" stroke-width="4"/><g stroke="#749ba8" stroke-width="1.4" opacity=".62"><path d="M350 447 L362 448 M360 408 L371 412 M384 381 L393 387 M418 362 L425 370 M460 353 L463 362 M503 352 L503 361 M547 357 L544 367 M587 373 L581 381 M620 397 L610 403 M642 429 L630 432 M644 469 L632 468 M626 504 L616 499 M596 533 L588 525 M552 553 L549 543 M504 559 L504 549 M455 555 L458 545 M409 540 L416 531 M375 516 L384 509 M354 484 L366 482"/></g><path d="M706 492 A214 154 0 1 1 673 359 L642 377 A176 123 0 1 0 669 483Z" fill="url(#rim)"/><path d="M699 490 A207 147 0 1 1 667 364" fill="none" stroke="#fbf6e4" stroke-width="1.5" opacity=".82"/><path d="M638 380 A171 118 0 1 0 664 481" fill="none" stroke="#5d818a" stroke-width="1.1"/><path d="M312 400 C342 342 415 306 492 303" fill="none" stroke="#fff9e8" stroke-width="3" opacity=".8"/><path d="M328 519 C364 566 429 593 500 596 C560 596 617 578 655 548" fill="none" stroke="#466773" stroke-width="1" opacity=".55"/><path d="M317 479 C329 517 360 549 403 570" fill="none" stroke="#eff2df" stroke-width="2" opacity=".65"/><g fill="none" stroke="#4a6871" stroke-width="1"><path d="M298 425 L313 427 M304 405 L318 409 M313 386 L327 391 M324 368 L337 374 M339 352 L350 359 M354 337 L365 346 M373 325 L381 335 M393 315 L400 325 M416 307 L421 318 M440 301 L443 313 M464 297 L466 309 M489 296 L489 308 M515 296 L514 308 M540 299 L538 311 M564 304 L560 316 M587 311 L582 322 M608 320 L602 330 M627 331 L619 341 M644 344 L634 352 M314 508 L328 503 M324 527 L337 520 M338 544 L350 536 M354 559 L365 550 M373 573 L382 563 M394 584 L401 573 M417 592 L422 581 M441 598 L444 586 M466 602 L468 590 M491 604 L491 592 M517 603 L516 591 M542 601 L540 589 M566 596 L562 584 M589 589 L584 578 M611 579 L604 569 M631 568 L623 558 M649 554 L639 545 M665 539 L653 531 M679 522 L666 515"/></g><g fill="#18303b" stroke="#7d9697" stroke-width="1"><ellipse cx="305" cy="452" rx="6" ry="4.3"/><ellipse cx="361" cy="352" rx="6" ry="4.3"/><ellipse cx="500" cy="311" rx="6" ry="4.3"/><ellipse cx="636" cy="351" rx="6" ry="4.3"/><ellipse cx="332" cy="519" rx="6" ry="4.3"/><ellipse cx="402" cy="570" rx="6" ry="4.3"/><ellipse cx="500" cy="588" rx="6" ry="4.3"/><ellipse cx="597" cy="570" rx="6" ry="4.3"/><ellipse cx="663" cy="523" rx="5" ry="3.8"/></g><g stroke="#d6e0d5" stroke-width="1.1"><path d="M302 452 L308 452 M358 352 L364 352 M497 311 L503 311 M633 351 L639 351 M329 519 L335 519 M399 570 L405 570 M497 588 L503 588 M594 570 L600 570 M660 523 L666 523"/></g><path d="M437 315 L457 312 L460 322 L441 325Z" fill="#405e68"/><path d="M440 317 L452 315" fill="none" stroke="#c8ded7" stroke-width="1"/><path d="M552 580 L569 576 L573 585 L555 590Z" fill="#405e68"/><path d="M556 583 L566 580" fill="none" stroke="#c8ded7" stroke-width="1"/><ellipse cx="499" cy="478" rx="115" ry="72" fill="#081a24" opacity=".8"/><path d="M480 406 L590 469 L553 490 L586 509 L550 530 L480 490 L443 511 L407 490 L443 469 L407 448Z" fill="#0a1d28" stroke="#507082" stroke-width="1"/><path d="M480 399 L590 462 L553 483 L586 502 L550 523 L480 483 L443 504 L407 483 L443 462 L407 441Z" fill="#496978"/><path d="M480 394 L590 457 L553 478 L586 497 L550 518 L480 478 L443 499 L407 478 L443 457 L407 436Z" fill="#142d3a" stroke="#9cc8d4" stroke-width=".8"/><path d="M480 387 L590 450 L553 471 L586 490 L550 511 L480 471 L443 492 L407 471 L443 450 L407 429Z" fill="#27495c" stroke="#658f9e" stroke-width=".8"/><path d="M480 370 L590 433 L553 454 L586 473 L550 494 L480 454 L443 475 L407 454 L443 433 L407 412 L407 441 L443 462 L407 483 L443 504 L480 483 L550 523 L586 502 L553 483 L590 462 L480 399Z" fill="url(#coreSide)"/><path d="M407 412 L443 433 L443 462 L407 441Z" fill="#34515f"/><path d="M407 454 L443 475 L443 504 L407 483Z" fill="#263f4d"/><path d="M443 475 L480 454 L480 483 L443 504Z" fill="#83b8c8"/><path d="M480 454 L550 494 L550 523 L480 483Z" fill="#2c627e"/><path d="M550 494 L586 473 L586 502 L550 523Z" fill="#9cdbed"/><path d="M553 454 L590 433 L590 462 L553 483Z" fill="#5fadc9"/><g fill="none" stroke="#133746" stroke-width="1.1"><path d="M408 449 L443 470 L478 450 M408 457 L443 478 L479 457 M408 465 L443 486 L479 465 M408 473 L443 494 L479 473 M483 461 L550 500 L585 480 M483 469 L550 508 L585 488 M483 477 L550 516 L585 496 M555 461 L589 441 M555 469 L589 449 M555 477 L589 457"/></g><path d="M480 370 L590 433 L553 454 L586 473 L550 494 L480 454 L443 475 L407 454 L443 433 L407 412Z" fill="url(#coreTop)" stroke="#e4f1e5" stroke-width="1.2" stroke-linejoin="round"/><path d="M484 383 L572 433 L542 450 L569 465 L540 482 L484 450 L454 467 L426 450 L454 433 L426 416Z" fill="#142c39" stroke="#83a5af" stroke-width="1"/><g clip-path="url(#coreWell)" fill="none"><path d="M397 395 L575 498 M407 389 L585 492 M417 383 L595 486 M427 377 L605 480 M437 371 L615 474 M447 365 L625 468 M387 401 L565 504 M377 407 L555 510 M367 413 L545 516 M357 419 L535 522" stroke="#071923" stroke-width="4"/><path d="M398 393 L576 496 M408 387 L586 490 M418 381 L596 484 M428 375 L606 478 M438 369 L616 472 M448 363 L626 466 M388 399 L566 502 M378 405 L556 508 M368 411 L546 514 M358 417 L536 520" stroke="#80b7c7" stroke-width="1.1" opacity=".65"/><path d="M474 385 L565 437 M440 416 L490 445 M490 445 L512 457 M526 456 L549 469" stroke="#b5e9f2" stroke-width="2"/><path d="M490 399 L535 425" stroke="#69caff" stroke-width="3"/></g><path d="M426 416 L484 383 L572 433" fill="none" stroke="#081f2c" stroke-width="2"/><path d="M426 450 L454 467 L484 450 L540 482 L569 465" fill="none" stroke="#d8efea" stroke-width="1.1"/><path d="M415 412 L480 375 L578 431" fill="none" stroke="#fff9e4" stroke-width=".8" opacity=".65"/><path d="M551 500 L551 520" fill="none" stroke="#d3f8fa" stroke-width="1.4"/><path d="M574 483 C607 484 626 455 660 459" fill="none" stroke="#071b28" stroke-width="6"/><path d="M574 480 C607 481 626 452 660 456" fill="none" stroke="#69caff" stroke-width="2.3"/><path d="M578 488 C610 488 630 461 661 464" fill="none" stroke="#69caff" stroke-width=".9" opacity=".45"/><path d="M673 359 L642 377 L642 404 L673 386Z" fill="url(#cut)"/><path d="M673 359 L642 377 L642 383 L673 365Z" fill="#eff1df"/><path d="M646 385 L669 372 M646 391 L669 378 M646 397 L669 384" fill="none" stroke="#395e70" stroke-width="1.2"/><path d="M706 492 L669 483 L669 510 L706 519Z" fill="url(#cut)"/><path d="M706 492 L669 483 L669 488 L706 497Z" fill="#d9f0ec"/><path d="M673 495 L702 502 M673 501 L702 508 M673 507 L702 514" fill="none" stroke="#214b60" stroke-width="1.3"/><path d="M706 519 L706 533 L675 527 L675 514Z" fill="#153648"/><path d="M678 520 L702 526" fill="none" stroke="#69caff" stroke-width="1.5"/><path d="M681 526 L700 531" fill="none" stroke="#69caff" stroke-width=".8" opacity=".45"/><path d="M325 613 L338 621 L267 705 L248 695Z" fill="#172f3b" stroke="#48616d" stroke-width="1"/><path d="M325 615 L329 618 L257 700 L251 697Z" fill="#a8bdb9"/><path d="M320 632 L285 675" fill="none" stroke="#69caff" stroke-width="1" opacity=".45"/><path d="M619 625 L631 621 L702 729 L684 736Z" fill="#162d38" stroke="#3f5d6b" stroke-width="1"/><path d="M625 626 L692 729" fill="none" stroke="#9fbbb9" stroke-width="2"/><path d="M626 645 L674 722" fill="none" stroke="#69caff" stroke-width=".8" opacity=".5"/><path d="M107 557 A402 274 0 0 0 893 557 L879 554 A388 260 0 0 1 121 554Z" fill="url(#orbit)"/><path d="M107 557 A402 274 0 0 0 893 557" fill="none" stroke="#344d59" stroke-width="2"/><path d="M121 554 A388 260 0 0 0 879 554" fill="none" stroke="#eaf0df" stroke-width="1.3"/><path d="M119 568 C168 689 326 772 500 772 C674 772 832 689 881 568" fill="none" stroke="#ffffff" stroke-width=".8" opacity=".28"/><g fill="none" stroke="#38535f" stroke-width="1.6"><path d="M112 571 L125 567 M130 606 L143 601 M152 637 L165 630 M181 666 L193 657 M216 694 L227 684 M255 717 L265 706 M299 737 L307 725 M347 753 L352 741 M396 765 L400 752 M448 772 L450 759 M500 774 L500 760 M552 772 L550 759 M604 765 L600 752 M653 753 L648 741 M701 737 L693 725 M745 717 L735 706 M784 694 L773 684 M819 666 L807 657 M848 637 L835 630 M870 606 L857 601 M888 571 L875 567"/></g><g fill="none" stroke="#38535f" stroke-width=".8" opacity=".65"><path d="M120 589 L126 587 M140 622 L146 619 M166 652 L172 648 M198 681 L204 676 M235 706 L240 701 M277 728 L281 722 M323 746 L326 740 M371 760 L373 754 M422 769 L423 763 M474 774 L474 767 M526 774 L526 767 M578 769 L577 763 M629 760 L627 754 M677 746 L674 740 M723 728 L719 722 M765 706 L760 701 M802 681 L796 676 M834 652 L828 648 M860 622 L854 619 M880 589 L874 587"/></g><path d="M682 734 L687 741 L696 737 L691 730Z" fill="#ed8b62"/><path d="M696 728 L701 735 L707 732 L702 725Z" fill="#ed8b62"/><path d="M91 580 C132 705 308 794 480 797" fill="none" stroke="#69caff" stroke-width="1" opacity=".25"/><path d="M154 688 C229 766 351 812 488 814" fill="none" stroke="#8fc8d8" stroke-width=".75" opacity=".2"/><path d="M524 794 C606 792 693 771 758 732" fill="none" stroke="#5f99b0" stroke-width="1" opacity=".25"/><path d="M177 704 L184 697 M193 719 L200 711 M208 731 L215 723 M226 744 L232 736 M245 755 L250 747 M265 766 L270 758 M287 776 L291 768 M309 784 L312 776" fill="none" stroke="#69caff" stroke-width="1" opacity=".35"/><path d="M103 488 L142 469 L159 479 L120 499Z" fill="#c4d1c9"/><path d="M103 488 L120 499 L120 512 L103 501Z" fill="#5c7a84"/><path d="M120 499 L159 479 L159 491 L120 512Z" fill="#294857"/><path d="M110 489 L141 474 L149 479 L118 495Z" fill="#203b48"/><path d="M129 480 L132 486" fill="none" stroke="#f5ac7d" stroke-width="2"/><path d="M139 480 L146 477" fill="none" stroke="#69caff" stroke-width="1"/><path d="M110 505 L110 541 L116 557" fill="none" stroke="#5d8aa0" stroke-width="1.5"/><circle cx="111" cy="507" r="2.5" fill="#aad5db"/><path d="M657 451 C704 439 747 447 778 474 C811 503 814 551 872 581 L890 639 C823 614 794 570 779 531 C764 493 724 481 660 481Z" fill="url(#light)"/><path d="M658 453 C704 442 742 448 768 472 C798 498 802 541 854 575" fill="none" stroke="#69caff" stroke-width="13" opacity=".035"/><path d="M659 455 C685 449 712 450 732 457" fill="none" stroke="#a1e2ff" stroke-width="3" opacity=".75"/><g fill="none" stroke="#69caff" stroke-linejoin="round" stroke-linecap="round"><path d="M655 451 C696 439 730 445 751 461 L759 466 L765 461 L771 479 L776 473 L782 486 L787 480 L793 497 L799 494 L806 513 L812 510 C830 540 846 550 870 558" stroke-width="1" opacity=".37"/><path d="M656 454 C696 444 730 450 751 466 L759 471 L765 466 L771 484 L776 478 L782 491 L787 485 L793 502 L799 499 L806 518 L812 515 C830 545 849 556 872 564" stroke-width="1.2" opacity=".55"/><path d="M657 457 C697 449 730 455 751 471 L759 476 L765 470 L771 489 L776 483 L782 496 L787 490 L793 507 L799 504 L806 523 L812 520 C830 550 850 562 874 570" stroke-width="1" opacity=".8"/><path d="M658 460 C697 454 731 460 751 476 L759 481 L765 475 L771 494 L776 487 L782 501 L787 495 L793 512 L799 509 L806 528 L812 525 C830 555 852 568 876 576" stroke-width="1.3" opacity=".92"/><path d="M659 463 C698 459 731 465 751 481 L759 486 L765 479 L771 499 L776 492 L782 506 L787 500 L793 517 L799 514 L806 533 L812 530 C830 560 853 574 878 582" stroke-width="1" opacity=".64"/><path d="M660 466 C698 463 732 470 751 486 L759 491 L765 484 L771 504 L776 497 L782 511 L787 505 L793 522 L799 519 L806 538 L812 535 C830 565 854 580 880 588" stroke-width="1.1" opacity=".5"/><path d="M661 469 C699 467 732 475 751 491 L759 496 L765 489 L771 509 L776 502 L782 516 L787 510 L793 527 L799 524 L806 543 L812 540 C830 570 855 586 882 594" stroke-width="1" opacity=".65"/><path d="M662 472 C699 471 733 480 751 496 L759 501 L765 494 L771 514 L776 507 L782 521 L787 515 L793 532 L799 529 L806 548 L812 545 C830 575 856 592 884 600" stroke-width="1.1" opacity=".82"/><path d="M663 475 C700 476 733 485 751 501 L759 506 L765 499 L771 519 L776 512 L782 526 L787 520 L793 537 L799 534 L806 553 L812 550 C830 580 857 598 886 606" stroke-width="1" opacity=".54"/><path d="M664 478 C700 480 734 490 751 506 L759 511 L765 504 L771 524 L776 517 L782 531 L787 525 L793 542 L799 539 L806 558 L812 555 C830 585 858 604 888 612" stroke-width=".9" opacity=".45"/><path d="M665 481 C701 484 734 495 751 511 L759 516 L765 509 L771 529 L776 522 L782 536 L787 530 L793 547 L799 544 L806 563 L812 560 C830 590 859 610 890 618" stroke-width="1" opacity=".35"/></g><path d="M662 473 C700 474 733 483 751 499 L759 504 L765 494 L771 526 L776 513 L782 529 L787 518 L793 546 L799 534 L806 556 L812 551 C830 582 852 597 873 607" fill="none" stroke="#f6c3a0" stroke-width="1.25" stroke-linejoin="round" opacity=".86"/><path d="M763 495 L763 505 M771 514 L771 526 M782 522 L782 530 M794 534 L794 546 M807 550 L807 557" fill="none" stroke="#ff946b" stroke-width="1.4"/><path d="M744 478 L750 480 M748 486 L754 488 M752 494 L758 496 M756 502 L762 504" fill="none" stroke="#d2f1ef" stroke-width=".8" opacity=".8"/><path d="M827 554 L843 548 L883 632 L867 639Z" fill="#142c37" stroke="#476e80" stroke-width="1"/><path d="M830 555 L834 553 L873 635 L869 637Z" fill="#b7d1ce"/><path d="M840 553 L844 561 M845 565 L849 573 M850 577 L854 585 M855 589 L859 597 M860 601 L864 609 M865 613 L869 621" fill="none" stroke="#69caff" stroke-width="1.2"/><path d="M873 636 L883 632 L885 640 L875 644Z" fill="#314f5d"/><circle cx="879" cy="638" r="1.8" fill="#b4d1d4"/><g transform="translate(662 414) scale(.38)" opacity=".3"><path d="M480 370 L590 433 L553 454 L586 473 L550 494 L480 454 L443 475 L407 454 L443 433 L407 412Z" fill="#69caff" fill-opacity=".035" stroke="#69caff" stroke-width="2"/><path d="M484 383 L572 433 L542 450 L569 465 L540 482 L484 450 L454 467 L426 450 L454 433 L426 416Z" fill="none" stroke="#69caff" stroke-width="1.5"/></g><path d="M817 579 L826 571 M841 563 L850 554 M871 604 L881 593" fill="none" stroke="#9dd9e9" stroke-width=".7" opacity=".4"/><g transform="translate(650 429) scale(.38)"><path d="M480 394 L590 457 L553 478 L586 497 L550 518 L480 478 L443 499 L407 478 L443 457 L407 436Z" fill="#091b25" stroke="#3f6774" stroke-width="2"/><path d="M480 370 L590 433 L553 454 L586 473 L550 494 L480 454 L443 475 L407 454 L443 433 L407 412 L407 432 L443 453 L407 474 L443 495 L480 474 L550 514 L586 493 L553 474 L590 453 L480 390Z" fill="url(#orangeSide)"/><path d="M443 475 L480 454 L480 474 L443 495Z" fill="#e98b65"/><path d="M550 494 L586 473 L586 493 L550 514Z" fill="#ffad77"/><path d="M553 454 L590 433 L590 453 L553 474Z" fill="#d4664f"/><path d="M480 370 L590 433 L553 454 L586 473 L550 494 L480 454 L443 475 L407 454 L443 433 L407 412Z" fill="url(#orange)" stroke="#ffc49b" stroke-width="2"/><path d="M484 383 L572 433 L542 450 L569 465 L540 482 L484 450 L454 467 L426 450 L454 433 L426 416Z" fill="none" stroke="#9f4e3e" stroke-width="1.8"/><path d="M444 416 L501 449 M456 409 L526 449 M468 402 L544 446 M480 395 L558 440 M442 443 L458 452 M510 454 L539 471" fill="none" stroke="#ffd5af" stroke-width="1.8" opacity=".8"/><path d="M408 461 L443 482 L479 462 M483 461 L550 500 L585 480 M555 461 L589 441" fill="none" stroke="#6f3733" stroke-width="1.5"/><path d="M480 370 L590 433" fill="none" stroke="#ffebc6" stroke-width="2.4"/></g><path d="M896 613 L902 626 L895 629" fill="none" stroke="#8eb6c0" stroke-width=".8" opacity=".6"/><path d="M899 602 L908 622" fill="none" stroke="#ed996f" stroke-width="1.2" opacity=".6"/><circle cx="709" cy="455" r="2.1" fill="#c4f0ff"/><circle cx="725" cy="459" r="1.4" fill="#a7e3ff"/><circle cx="739" cy="466" r="1" fill="#69caff"/><path d="M704 441 L714 443" fill="none" stroke="#69caff" stroke-width=".8" opacity=".7"/><path d="M725 446 L732 449" fill="none" stroke="#69caff" stroke-width=".8" opacity=".4"/><path d="M798 328 L803 324 L808 329 L803 333Z" fill="#c2d8d4" opacity=".55"/><path d="M353 781 L354 788 M363 784 L364 791 M376 787 L377 794" fill="none" stroke="#bfd9d7" stroke-width="1" opacity=".35"/></g></svg>