<svg xmlns="http://www.w3.org/2000/svg" viewBox="0 0 1000 1490" width="1000" height="1490"><title>Loyd Blankenship — Open Source Legends v2</title><rect width="1000" height="1490" rx="26" fill="#10141c"/><text fill="#ff9369" font-size="18" font-family="DejaVu Sans,Arial,sans-serif"><tspan x="48" y="64">HACKING LEGENDS / V2</tspan></text><text fill="#ffffff" font-size="40" font-family="DejaVu Sans,Arial,sans-serif"><tspan x="48" y="122">Loyd Blankenship</tspan></text><svg x="40" y="160" width="920" height="920" viewBox="0 0 1000 1000"><title>Release under pressure</title><desc>A perforated manuscript rises from a split industrial platen and curls into an open architectural loop. Ivory paper, coral fracture surfaces and sea-green metal emerge from a charcoal field.</desc><defs><radialGradient id="ground" cx="74%" cy="28%" r="88%"><stop offset="0" stop-color="#314648"/><stop offset=".48" stop-color="#202e33"/><stop offset="1" stop-color="#10191e"/></radialGradient><linearGradient id="bed" x1="0" y1="80" x2="0" y2="260" gradientUnits="userSpaceOnUse"><stop stop-color="#536365"/><stop offset=".28" stop-color="#34474b"/><stop offset="1" stop-color="#19282f"/></linearGradient><linearGradient id="drum" x1="0" y1="-158" x2="0" y2="158" gradientUnits="userSpaceOnUse"><stop stop-color="#7c8984"/><stop offset=".08" stop-color="#4e6668"/><stop offset=".25" stop-color="#253b42"/><stop offset=".62" stop-color="#14252c"/><stop offset=".86" stop-color="#263d43"/><stop offset="1" stop-color="#657872"/></linearGradient><linearGradient id="cheek" x1="-80" y1="-145" x2="62" y2="148" gradientUnits="userSpaceOnUse"><stop stop-color="#88958b"/><stop offset=".19" stop-color="#4e6567"/><stop offset=".53" stop-color="#263c43"/><stop offset="1" stop-color="#14272e"/></linearGradient><radialGradient id="bearing" cx="30%" cy="24%" r="80%"><stop stop-color="#ecedda"/><stop offset=".42" stop-color="#a6bcb0"/><stop offset=".73" stop-color="#557976"/><stop offset="1" stop-color="#24434a"/></radialGradient><linearGradient id="coral" x1="-64" y1="-126" x2="66" y2="124" gradientUnits="userSpaceOnUse"><stop stop-color="#ffcf9e"/><stop offset=".34" stop-color="#ff9369"/><stop offset=".7" stop-color="#dc7657"/><stop offset="1" stop-color="#85483d"/></linearGradient><linearGradient id="paper" x1="414" y1="382" x2="628" y2="655" gradientUnits="userSpaceOnUse"><stop stop-color="#fff9e8"/><stop offset=".4" stop-color="#f3ecd7"/><stop offset=".76" stop-color="#d8d4b9"/><stop offset="1" stop-color="#aaaF98"/></linearGradient><linearGradient id="crown" x1="638" y1="159" x2="823" y2="353" gradientUnits="userSpaceOnUse"><stop stop-color="#fffbe9"/><stop offset=".4" stop-color="#f0f0d9"/><stop offset=".74" stop-color="#c6d7bd"/><stop offset="1" stop-color="#729f95"/></linearGradient><linearGradient id="return" x1="783" y1="312" x2="768" y2="560" gradientUnits="userSpaceOnUse"><stop stop-color="#375d60"/><stop offset=".25" stop-color="#598981"/><stop offset=".64" stop-color="#a2d0b7"/><stop offset="1" stop-color="#e8efd2"/></linearGradient><linearGradient id="edge" x1="415" y1="250" x2="601" y2="970" gradientUnits="userSpaceOnUse"><stop stop-color="#ffbf8b"/><stop offset=".38" stop-color="#ff9369"/><stop offset="1" stop-color="#ab6652"/></linearGradient><linearGradient id="steel" x1="0" y1="-290" x2="0" y2="-100" gradientUnits="userSpaceOnUse"><stop stop-color="#c3cbb8"/><stop offset=".15" stop-color="#647f7d"/><stop offset=".47" stop-color="#233b42"/><stop offset=".8" stop-color="#96aca0"/><stop offset="1" stop-color="#3c5b5e"/></linearGradient><linearGradient id="jaw" x1="0" y1="-195" x2="0" y2="-112" gradientUnits="userSpaceOnUse"><stop stop-color="#70847d"/><stop offset=".2" stop-color="#3b5558"/><stop offset=".47" stop-color="#152a32"/><stop offset="1" stop-color="#20383f"/></linearGradient><clipPath id="square"><rect width="1000" height="1000"/></clipPath><clipPath id="sheet"><path d="M190 934 C316 816 369 715 405 540 C429 382 458 278 535 204 C605 136 732 151 762 254 C781 317 746 390 691 432 L628 469 L786 565 L849 528 C904 486 939 413 920 350 C890 247 763 232 693 300 C616 374 587 478 563 636 C527 811 474 912 348 1030 Z"/></clipPath></defs><g clip-path="url(#square)"><rect width="1000" height="1000" fill="url(#ground)"/><path d="M-110 875 L292 561 L647 650 L1040 1026 L-110 1110 Z" fill="#081318" opacity=".5"/><path d="M780 613 C873 694 920 837 1018 902 L1018 1020 L700 1020 C664 893 707 724 780 613 Z" fill="#385050" opacity=".15"/><path d="M18 941 L192 834 L591 １０００" fill="none" stroke="#192b30" stroke-width="1"/><g transform="translate(268 637) rotate(31)"><path d="M-156 115 L468 115 L565 236 L-59 236 Z" fill="url(#bed)"/><path d="M-59 236 L565 236 L565 281 L-59 281 Z" fill="#10222a"/><path d="M-156 115 L-59 236 L-59 281 L-156 160 Z" fill="#1e343b"/><path d="M-152 115 L468 115 L478 127 L-142 127 Z" fill="#71817a"/><path d="M-59 237 L565 237" fill="none" stroke="#8b9b8d" stroke-width="2"/><path d="M-48 251 L547 251" fill="none" stroke="#314c51" stroke-width="3"/><path d="M-124 137 L443 137 L490 196 L-77 196 Z" fill="#10232a"/><path d="M-112 138 L-71 191 L-52 191 L-94 138 Z M-54 138 L-13 191 L6 191 L-36 138 Z M4 138 L45 191 L64 191 L22 138 Z M62 138 L103 191 L122 191 L80 138 Z M120 138 L161 191 L180 191 L138 138 Z M178 138 L219 191 L238 191 L196 138 Z M236 138 L277 191 L296 191 L254 138 Z M294 138 L335 191 L354 191 L312 138 Z M352 138 L393 191 L412 191 L370 138 Z M410 138 L451 191 L470 191 L428 138 Z" fill="#3c5357"/><path d="M-94 139 L-53 190 M-36 139 L5 190 M22 139 L63 190 M80 139 L121 190 M138 139 L179 190 M196 139 L237 190 M254 139 L295 190 M312 139 L353 190 M370 139 L411 190 M428 139 L469 190" fill="none" stroke="#6a7e77" stroke-width="2"/><path d="M-88 210 H501" fill="none" stroke="#68817c" stroke-width="2"/><path d="M-88 215 H501" fill="none" stroke="#0a1c23" stroke-width="3"/><path d="M390 -118 L454 -153 L503 -108 L517 166 L438 186 L390 140 Z" fill="#182e36" stroke="#496467" stroke-width="2"/><path d="M454 -153 L483 -144 L529 -95 L540 162 L517 166 L503 -108 Z" fill="#3b585b"/><path d="M443 117 L493 105 L499 151 L449 163 Z" fill="#071d25"/><path d="M452 124 L484 116 L488 141 L456 150 Z" fill="#527672"/><ellipse cx="437" cy="0" rx="94" ry="162" fill="#0b2028" stroke="#819b90" stroke-width="2"/><ellipse cx="438" cy="0" rx="82" ry="146" fill="#4a726f"/><ellipse cx="438" cy="0" rx="73" ry="133" fill="#203e47" stroke="#9bceba" stroke-width="2"/><path d="M438 -125 C527 -125 527 125 438 125 L438 108 C515 108 515 -108 438 -108 Z" fill="#86cdb6"/><ellipse cx="439" cy="0" rx="46" ry="87" fill="#122d36" stroke="#577c7b" stroke-width="3"/><ellipse cx="439" cy="0" rx="21" ry="42" fill="url(#bearing)"/><ellipse cx="439" cy="0" rx="11" ry="25" fill="#09202a"/><path d="M0 -153 H425 C530 -153 530 153 425 153 H0 Z" fill="url(#drum)"/><path d="M4 -153 H425 C449 -153 469 -146 483 -132 L68 -132 Z" fill="#81928a" opacity=".46"/><path d="M39 -140 H448 M63 -124 H469 M79 116 H470 M34 145 H448" fill="none" stroke="#9aa699" stroke-width="1" opacity=".35"/><path d="M88 -144 C143 -80 143 80 88 144 M330 -146 C390 -78 390 78 330 146" fill="none" stroke="#0d222b" stroke-width="15"/><path d="M87 -144 C142 -80 142 80 87 144 M329 -146 C389 -78 389 78 329 146" fill="none" stroke="#76918b" stroke-width="2"/><path d="M349 -143 C405 -78 405 78 349 143" fill="none" stroke="#142e38" stroke-width="17"/><path d="M348 -143 C404 -78 404 78 348 143" fill="none" stroke="#49686b" stroke-width="3"/><path d="M375 -151 C442 -82 442 82 375 151" fill="none" stroke="#0c242d" stroke-width="7"/><path d="M381 -152 C447 -82 447 82 381 152" fill="none" stroke="#72918b" stroke-width="2"/><path d="M352 -125 L389 -116 L396 -96 L359 -104 Z M376 -62 L413 -55 L416 -32 L380 -39 Z M383 7 L420 10 L418 32 L381 30 Z M373 76 L408 73 L399 94 L365 99 Z" fill="#587772" opacity=".65"/><path d="M-85 -112 L-40 -167 L12 -168 L76 -113 L92 158 L48 208 L-59 208 L-104 155 Z" fill="#1a3038" stroke="#58716f" stroke-width="2"/><path d="M-104 155 L-59 208 L48 208 L68 192 L-48 192 L-89 147 Z" fill="#516c68"/><path d="M-56 177 H37" fill="none" stroke="#91a89a" stroke-width="2"/><path d="M-58 185 H40" fill="none" stroke="#102630" stroke-width="4"/><ellipse cx="-64" cy="142" rx="7" ry="9" fill="#0b2028" stroke="#7c958b" stroke-width="2"/><ellipse cx="51" cy="145" rx="7" ry="9" fill="#0b2028" stroke="#7c958b" stroke-width="2"/><path d="M-145 72 L-87 29 L-62 39 L-120 86 Z" fill="#7a9186"/><path d="M-145 72 L-145 87 L-120 100 L-120 86 Z" fill="#273f47"/><path d="M-120 86 L-62 39 L-62 52 L-120 100 Z" fill="#142a33"/><ellipse cx="-105" cy="68" rx="7" ry="5" fill="#213c42"/><path d="M-133 116 L-64 78 L-44 91 L-112 130 Z" fill="#3d5d60"/><path d="M-112 130 L-44 91 L-44 103 L-112 142 Z" fill="#0d252e"/><path d="M-125 117 L-62 83" fill="none" stroke="#a2b2a0" stroke-width="2"/></g><path d="M205 950 C331 832 384 731 420 556 C444 398 473 294 550 220 C620 152 747 167 777 270 C796 333 761 406 706 448 L643 485 L801 581 L864 544 C919 502 954 429 935 366 C905 263 778 248 708 316 C631 390 602 494 578 652 C542 827 489 928 363 1046 Z" fill="#08151b" opacity=".46"/><path d="M194 943 C320 825 373 724 409 549 C433 391 462 287 539 213 C609 145 736 160 766 263 C785 326 750 399 695 441 L632 478 L790 574 L853 537 C908 495 943 422 924 359 C894 256 767 241 697 309 C620 383 591 487 567 645 C531 820 478 921 352 1039 Z" fill="url(#edge)"/><path d="M190 934 C316 816 369 715 405 540 C429 382 458 278 535 204 C605 136 732 151 762 254 C781 317 746 390 691 432 L628 469 L786 565 L849 528 C904 486 939 413 920 350 C890 247 763 232 693 300 C616 374 587 478 563 636 C527 811 474 912 348 1030 Z" fill="url(#paper)"/><path d="M762 254 C781 317 746 390 691 432 L628 469 L786 565 L849 528 C904 486 939 413 920 350 Z" fill="url(#return)"/><path d="M535 204 C605 136 732 151 762 254 L920 350 C890 247 763 232 693 300 Z" fill="url(#crown)"/><path d="M190 934 C316 816 369 715 405 540 C429 382 458 278 535 204 L693 300 C616 374 587 478 563 636 C527 811 474 912 348 1030 Z" fill="url(#paper)"/><path d="M535 204 C605 136 732 151 762 254" fill="none" stroke="#fffce9" stroke-width="2.5"/><path d="M190 934 C316 816 369 715 405 540 C429 382 458 278 535 204" fill="none" stroke="#fffbe8" stroke-width="2"/><path d="M693 300 C616 374 587 478 563 636 C527 811 474 912 348 1030" fill="none" stroke="#b8b89d" stroke-width="1.5"/><path d="M762 254 C781 317 746 390 691 432 L628 469" fill="none" stroke="#b5d8ba" stroke-width="1.5"/><path d="M920 350 C939 413 904 486 849 528 L786 565" fill="none" stroke="#d0edcc" stroke-width="2"/><g clip-path="url(#sheet)"><path d="M207 944 C333 826 386 725 422 550 C446 392 475 288 552 214 C622 146 749 161 779 264 C798 327 763 400 708 442 L645 479" fill="none" stroke="#8c977f" stroke-width="1" opacity=".7"/><path d="M331 1019 C457 901 510 800 546 625 C570 467 599 363 676 289 C746 221 873 236 903 339 C922 402 887 475 832 517 L769 554" fill="none" stroke="#829782" stroke-width="1" opacity=".75"/><path d="M424 432 L582 528 M486 266 L644 362 M331 759 L489 855" fill="none" stroke="#8c947b" stroke-width="1.2" opacity=".5"/><path d="M424 435 L582 531 M486 269 L644 365 M331 762 L489 858" fill="none" stroke="#fffbea" stroke-width="1.5" opacity=".7"/><path d="M664 165 L822 261" fill="none" stroke="#728f78" stroke-width="1" stroke-dasharray="3 5" opacity=".5"/><path d="M755 351 L913 447" fill="none" stroke="#d4edcf" stroke-width="1" opacity=".33"/><path d="M760 355 L918 451" fill="none" stroke="#2d615e" stroke-width="1" opacity=".2"/><path d="M201 922 L359 1018" fill="none" stroke="#7c8571" stroke-width="1.2"/><path d="M202 926 L360 1022" fill="none" stroke="#fff7df" stroke-width="2"/><path d="M781 272 C796 333 759 405 709 443 M795 280 C810 341 773 413 723 451 M884 334 C899 395 862 467 812 505" fill="none" stroke="#d1e7c9" stroke-width=".8" opacity=".2"/><g fill="#23353a"><ellipse cx="246" cy="899" rx="5.5" ry="8" transform="rotate(39 246 899)"/><ellipse cx="285" cy="855" rx="5.5" ry="8" transform="rotate(36 285 855)"/><ellipse cx="317" cy="812" rx="5.5" ry="8" transform="rotate(31 317 812)"/><ellipse cx="344" cy="766" rx="5.5" ry="7.5" transform="rotate(27 344 766)"/><ellipse cx="367" cy="718" rx="5" ry="7.5" transform="rotate(24 367 718)"/><ellipse cx="387" cy="667" rx="5" ry="7" transform="rotate(20 387 667)"/><ellipse cx="404" cy="610" rx="4.5" ry="7" transform="rotate(16 404 610)"/><ellipse cx="418" cy="548" rx="4.5" ry="6.5" transform="rotate(11 418 548)"/><ellipse cx="427" cy="491" rx="4.5" ry="6.5" transform="rotate(11 427 491)"/><ellipse cx="438" cy="439" rx="4.5" ry="6" transform="rotate(14 438 439)"/><ellipse cx="449" cy="392" rx="4.5" ry="6" transform="rotate(17 449 392)"/><ellipse cx="463" cy="348" rx="4.5" ry="6" transform="rotate(22 463 348)"/><ellipse cx="479" cy="309" rx="4.5" ry="5.5" transform="rotate(28 479 309)"/><ellipse cx="499" cy="274" rx="4.5" ry="5.5" transform="rotate(35 499 274)"/><ellipse cx="521" cy="241" rx="4.5" ry="5.5" transform="rotate(44 521 241)"/><ellipse cx="548" cy="212" rx="5.5" ry="4" transform="rotate(-35 548 212)"/><ellipse cx="578" cy="190" rx="5.5" ry="3.8" transform="rotate(-24 578 190)"/><ellipse cx="609" cy="177" rx="5.5" ry="3.3" transform="rotate(-12 609 177)"/><ellipse cx="643" cy="171" rx="5.5" ry="3"/><ellipse cx="677" cy="173" rx="5.5" ry="3" transform="rotate(10 677 173)"/><ellipse cx="709" cy="183" rx="5.5" ry="3.3" transform="rotate(24 709 183)"/><ellipse cx="737" cy="201" rx="5.5" ry="3.5" transform="rotate(39 737 201)"/><ellipse cx="760" cy="227" rx="5.5" ry="3.8" transform="rotate(56 760 227)"/><ellipse cx="775" cy="262" rx="4" ry="5.5" transform="rotate(-15 775 262)"/></g><g fill="#344c4a"><ellipse cx="378" cy="979" rx="5.5" ry="8" transform="rotate(39 378 979)"/><ellipse cx="417" cy="935" rx="5.5" ry="8" transform="rotate(36 417 935)"/><ellipse cx="449" cy="892" rx="5.5" ry="8" transform="rotate(31 449 892)"/><ellipse cx="476" cy="846" rx="5.5" ry="7.5" transform="rotate(27 476 846)"/><ellipse cx="499" cy="798" rx="5" ry="7.5" transform="rotate(24 499 798)"/><ellipse cx="519" cy="747" rx="5" ry="7" transform="rotate(20 519 747)"/><ellipse cx="536" cy="690" rx="4.5" ry="7" transform="rotate(16 536 690)"/><ellipse cx="550" cy="628" rx="4.5" ry="6.5" transform="rotate(11 550 628)"/><ellipse cx="559" cy="571" rx="4.5" ry="6.5" transform="rotate(11 559 571)"/><ellipse cx="570" cy="519" rx="4.5" ry="6" transform="rotate(14 570 519)"/><ellipse cx="581" cy="472" rx="4.5" ry="6" transform="rotate(17 581 472)"/><ellipse cx="595" cy="428" rx="4.5" ry="6" transform="rotate(22 595 428)"/><ellipse cx="611" cy="389" rx="4.5" ry="5.5" transform="rotate(28 611 389)"/><ellipse cx="631" cy="354" rx="4.5" ry="5.5" transform="rotate(35 631 354)"/><ellipse cx="653" cy="321" rx="4.5" ry="5.5" transform="rotate(44 653 321)"/><ellipse cx="680" cy="292" rx="5.5" ry="4" transform="rotate(-35 680 292)"/><ellipse cx="710" cy="270" rx="5.5" ry="3.8" transform="rotate(-24 710 270)"/><ellipse cx="741" cy="257" rx="5.5" ry="3.3" transform="rotate(-12 741 257)"/><ellipse cx="775" cy="251" rx="5.5" ry="3"/><ellipse cx="809" cy="253" rx="5.5" ry="3" transform="rotate(10 809 253)"/><ellipse cx="841" cy="263" rx="5.5" ry="3.3" transform="rotate(24 841 263)"/><ellipse cx="869" cy="281" rx="5.5" ry="3.5" transform="rotate(39 869 281)"/><ellipse cx="892" cy="307" rx="5.5" ry="3.8" transform="rotate(56 892 307)"/><ellipse cx="907" cy="342" rx="4" ry="5.5" transform="rotate(-15 907 342)"/></g><g fill="#244b4e"><ellipse cx="780" cy="310" rx="4" ry="6"/><ellipse cx="775" cy="334" rx="4" ry="6" transform="rotate(12 775 334)"/><ellipse cx="767" cy="359" rx="4" ry="6" transform="rotate(22 767 359)"/><ellipse cx="755" cy="382" rx="4" ry="6" transform="rotate(32 755 382)"/><ellipse cx="741" cy="403" rx="4" ry="6" transform="rotate(42 741 403)"/><ellipse cx="724" cy="422" rx="4" ry="6" transform="rotate(48 724 422)"/><ellipse cx="704" cy="440" rx="4" ry="6" transform="rotate(55 704 440)"/><ellipse cx="675" cy="457" rx="4" ry="6" transform="rotate(59 675 457)"/><ellipse cx="646" cy="474" rx="4" ry="6" transform="rotate(59 646 474)"/><ellipse cx="912" cy="390" rx="4" ry="6"/><ellipse cx="907" cy="414" rx="4" ry="6" transform="rotate(12 907 414)"/><ellipse cx="899" cy="439" rx="4" ry="6" transform="rotate(22 899 439)"/><ellipse cx="887" cy="462" rx="4" ry="6" transform="rotate(32 887 462)"/><ellipse cx="873" cy="483" rx="4" ry="6" transform="rotate(42 873 483)"/><ellipse cx="856" cy="502" rx="4" ry="6" transform="rotate(48 856 502)"/><ellipse cx="836" cy="520" rx="4" ry="6" transform="rotate(55 836 520)"/><ellipse cx="807" cy="537" rx="4" ry="6" transform="rotate(59 807 537)"/><ellipse cx="778" cy="554" rx="4" ry="6" transform="rotate(59 778 554)"/></g><path d="M641 457 L799 553 L786 565 L628 469 Z" fill="#eff2d6" opacity=".65"/><path d="M641 457 L799 553" fill="none" stroke="#618e7b" stroke-width=".9"/></g><path d="M628 469 L786 565 L790 574 L632 478 Z" fill="#ff9369"/><path d="M628 469 L786 565" fill="none" stroke="#fff7dd" stroke-width="2"/><path d="M638 476 L787 567" fill="none" stroke="#ffcba0" stroke-width="1"/><g transform="translate(268 637) rotate(31)"><path d="M69 -101 L320 -101 L321 -74 L70 -74 Z" fill="#16282b" opacity=".24"/><path d="M25 -38 L377 -38 L384 -23 L32 -23 Z" fill="#0b222b"/><path d="M25 -38 H377 L374 -44 H22 Z" fill="#8da694"/><path d="M32 -23 H384 V-11 H32 Z" fill="#203b42"/><path d="M57 -29 H351" fill="none" stroke="#4a6c6c" stroke-width="2"/><path d="M52 -37 V-23 M73 -37 V-23 M333 -37 V-23 M355 -37 V-23" fill="none" stroke="#0b2029" stroke-width="3"/><ellipse cx="52" cy="-46" rx="13" ry="24" fill="#0b222b" stroke="#9caf9e" stroke-width="2"/><ellipse cx="52" cy="-46" rx="7" ry="14" fill="#587d75"/><ellipse cx="52" cy="-46" rx="3" ry="7" fill="#102d35"/><ellipse cx="352" cy="-46" rx="13" ry="24" fill="#0b222b" stroke="#9caf9e" stroke-width="2"/><ellipse cx="352" cy="-46" rx="7" ry="14" fill="#587d75"/><ellipse cx="352" cy="-46" rx="3" ry="7" fill="#102d35"/><path d="M20 -102 L49 -102 L49 -42 L20 -42 Z" fill="#19343d"/><path d="M20 -102 L29 -109 L58 -109 L49 -102 Z" fill="#88a797"/><path d="M49 -102 L58 -109 V-49 L49 -42 Z" fill="#527674"/><path d="M348 -109 L378 -109 L378 -45 L348 -45 Z" fill="#19343d"/><path d="M348 -109 L357 -116 L387 -116 L378 -109 Z" fill="#a1b7a2"/><path d="M378 -109 L387 -116 V-52 L378 -45 Z" fill="#527674"/><rect x="25" y="-245" width="20" height="146" fill="url(#steel)"/><path d="M25 -239 L45 -246 M25 -229 L45 -236 M25 -219 L45 -226 M25 -209 L45 -216 M25 -199 L45 -206 M25 -189 L45 -196 M25 -179 L45 -186 M25 -169 L45 -176 M25 -159 L45 -166 M25 -149 L45 -156 M25 -139 L45 -146 M25 -129 L45 -136 M25 -119 L45 -126 M25 -109 L45 -116" fill="none" stroke="#132f37" stroke-width="3"/><path d="M26 -237 L44 -243 M26 -227 L44 -233 M26 -217 L44 -223 M26 -207 L44 -213 M26 -197 L44 -203 M26 -187 L44 -193 M26 -177 L44 -183 M26 -167 L44 -173 M26 -157 L44 -163 M26 -147 L44 -153 M26 -137 L44 -143 M26 -127 L44 -133 M26 -117 L44 -123" fill="none" stroke="#bfd1b8" stroke-width="1"/><path d="M8 -256 L34 -267 L62 -256 L62 -237 L35 -226 L8 -237 Z" fill="#26454b"/><path d="M8 -256 L34 -267 L62 -256 L35 -245 Z" fill="#acc1ac"/><path d="M35 -245 L62 -256 V-237 L35 -226 Z" fill="#4b7371"/><ellipse cx="35" cy="-256" rx="12" ry="5" fill="#2a4d51"/><ellipse cx="35" cy="-256" rx="6" ry="2.7" fill="#0e2b34"/><path d="M11 -254 L35 -244 L59 -254" fill="none" stroke="#e4e7cb" stroke-width="1"/><rect x="355" y="-271" width="19" height="159" fill="url(#steel)"/><path d="M355 -261 L374 -268 M355 -251 L374 -258 M355 -241 L374 -248 M355 -231 L374 -238 M355 -221 L374 -228 M355 -211 L374 -218 M355 -201 L374 -208 M355 -191 L374 -198 M355 -181 L374 -188 M355 -171 L374 -178 M355 -161 L374 -168 M355 -151 L374 -158 M355 -141 L374 -148 M355 -131 L374 -138 M355 -121 L374 -128" fill="none" stroke="#15353b" stroke-width="3"/><path d="M356 -259 L373 -265 M356 -249 L373 -255 M356 -239 L373 -245 M356 -229 L373 -235 M356 -219 L373 -225 M356 -209 L373 -215 M356 -199 L373 -205 M356 -189 L373 -195 M356 -179 L373 -185 M356 -169 L373 -175 M356 -159 L373 -165 M356 -149 L373 -155 M356 -139 L373 -145 M356 -129 L373 -135" fill="none" stroke="#c8d9ba" stroke-width="1"/><path d="M338 -283 L364 -294 L392 -283 L392 -263 L365 -252 L338 -263 Z" fill="#28484d"/><path d="M338 -283 L364 -294 L392 -283 L365 -272 Z" fill="#b6ccb4"/><path d="M365 -272 L392 -283 V-263 L365 -252 Z" fill="#638b80"/><ellipse cx="365" cy="-283" rx="12" ry="5" fill="#284e51"/><ellipse cx="365" cy="-283" rx="6" ry="2.7" fill="#0f3038"/><path d="M341 -281 L365 -271 L389 -281" fill="none" stroke="#e1efd0" stroke-width="1"/><path d="M20 -170 L180 -170 L201 -153 L186 -145 L198 -126 L20 -126 Z" fill="url(#jaw)"/><path d="M20 -170 L29 -182 L185 -182 L180 -170 Z" fill="#718b7e"/><path d="M180 -170 L185 -182 L206 -165 L201 -153 Z" fill="#ffb187"/><path d="M201 -153 L206 -165 L192 -157 L186 -145 Z" fill="#a45343"/><path d="M186 -145 L192 -157 L203 -137 L198 -126 Z" fill="#ff9369"/><path d="M20 -126 L198 -126 L197 -116 L20 -116 Z" fill="#0a232c"/><path d="M20 -169 H179" fill="none" stroke="#bed0b4" stroke-width="1.6"/><path d="M49 -156 H163 L173 -147 H49 Z" fill="#0a2630"/><path d="M49 -155 H160" fill="none" stroke="#54766f" stroke-width="1.5"/><path d="M48 -135 H175" fill="none" stroke="#426360" stroke-width="2"/><path d="M227 -190 L379 -190 L379 -147 L230 -147 L244 -162 L224 -176 Z" fill="url(#jaw)"/><path d="M227 -190 L234 -202 L387 -202 L379 -190 Z" fill="#8fa38e"/><path d="M379 -190 L387 -202 V-159 L379 -147 Z" fill="#355d60"/><path d="M227 -190 L234 -202 L231 -188 L224 -176 Z" fill="#ffe0ad"/><path d="M224 -176 L231 -188 L250 -174 L244 -162 Z" fill="#ff9369"/><path d="M244 -162 L250 -174 L237 -159 L230 -147 Z" fill="#a95c49"/><path d="M230 -147 H379 V-137 H231 Z" fill="#102a33"/><path d="M230 -189 H377" fill="none" stroke="#d2dfbf" stroke-width="1.6"/><path d="M259 -176 H352 V-167 H256 Z" fill="#0d2932"/><path d="M260 -175 H351" fill="none" stroke="#66877a" stroke-width="1.5"/><path d="M258 -156 H350" fill="none" stroke="#53766c" stroke-width="2"/><ellipse cx="67" cy="-146" rx="5.8" ry="4" fill="#acc0a7"/><ellipse cx="67" cy="-146" rx="2.5" ry="1.8" fill="#163640"/><ellipse cx="141" cy="-146" rx="5.8" ry="4" fill="#acc0a7"/><ellipse cx="141" cy="-146" rx="2.5" ry="1.8" fill="#163640"/><ellipse cx="280" cy="-166" rx="5.8" ry="4" fill="#bdceb0"/><ellipse cx="280" cy="-166" rx="2.5" ry="1.8" fill="#163640"/><ellipse cx="338" cy="-166" rx="5.8" ry="4" fill="#bdceb0"/><ellipse cx="338" cy="-166" rx="2.5" ry="1.8" fill="#163640"/><path d="M200 -201 L212 -194 L209 -183 L198 -191 Z" fill="#ff9369"/><path d="M200 -201 L205 -207 L217 -200 L212 -194 Z" fill="#f5d4a3"/><path d="M212 -194 L217 -200 L214 -189 L209 -183 Z" fill="#36565a"/><ellipse cx="0" cy="0" rx="97" ry="165" fill="#0b2028" stroke="#7a9086" stroke-width="2"/><ellipse cx="-5" cy="0" rx="91" ry="157" fill="url(#cheek)"/><path d="M-5 -157 C-57 -157 -96 -87 -96 0 C-96 87 -57 157 -5 157" fill="none" stroke="#b2b9a5" stroke-width="2"/><path d="M-5 -148 C42 -148 80 -82 80 0 C80 82 42 148 -5 148" fill="none" stroke="#102b34" stroke-width="4"/><ellipse cx="-5" cy="0" rx="73" ry="128" fill="#162d35" stroke="#83988a" stroke-width="1.5"/><ellipse cx="-5" cy="0" rx="66" ry="117" fill="url(#coral)"/><ellipse cx="-5" cy="0" rx="51" ry="92" fill="#163039" stroke="#ffc79a" stroke-width="1.5"/><path d="M-17 -113 L7 -113 L5 -96 L-15 -96 Z M20 -105 L34 -91 L26 -76 L15 -88 Z M44 -72 L55 -48 L42 -38 L33 -58 Z M59 -22 L60 14 L44 13 L44 -19 Z M53 49 L43 76 L31 63 L39 41 Z M29 99 L10 113 L6 94 L20 83 Z M-15 114 L-37 101 L-29 84 L-12 95 Z M-54 81 L-66 55 L-51 44 L-41 66 Z M-70 20 L-70 -13 L-54 -12 L-54 18 Z M-64 -50 L-51 -80 L-39 -66 L-50 -41 Z M-35 -104 L-18 -114 L-15 -96 L-29 -88 Z" fill="#854a3f" opacity=".6"/><path d="M-5 -112 C31 -112 59 -62 59 0" fill="none" stroke="#ffe1ae" stroke-width="2"/><path d="M-5 109 C-40 109 -67 60 -67 0" fill="none" stroke="#a85e48" stroke-width="2"/><ellipse cx="-5" cy="0" rx="44" ry="81" fill="#496a69" stroke="#0c2731" stroke-width="4"/><ellipse cx="-5" cy="0" rx="37" ry="69" fill="url(#bearing)"/><ellipse cx="-5" cy="0" rx="29" ry="55" fill="none" stroke="#d3dcc0" stroke-width="1.5"/><ellipse cx="-5" cy="0" rx="23" ry="44" fill="#173b43" stroke="#6d9a89" stroke-width="2"/><path d="M-61 -23 H-5 C12 -23 12 23 -5 23 H-61 Z" fill="#648c80"/><path d="M-61 -23 H-5 C-1 -23 3 -21 5 -18 H-61 Z" fill="#d9dfc0"/><path d="M-61 15 H4 L-5 23 H-61 Z" fill="#294f55"/><ellipse cx="-61" cy="0" rx="14" ry="23" fill="#a7beaa" stroke="#173d43" stroke-width="2"/><ellipse cx="-61" cy="0" rx="9" ry="17" fill="#74988a"/><path d="M-63 -10 L-58 -12 V10 L-63 12 Z" fill="#183c44"/><g fill="#102b34" stroke="#a3b4a0" stroke-width="1.5"><ellipse cx="-5" cy="-142" rx="6" ry="9"/><ellipse cx="61" cy="-72" rx="5.5" ry="8.5"/><ellipse cx="61" cy="72" rx="5.5" ry="8.5"/><ellipse cx="-5" cy="142" rx="6" ry="9"/><ellipse cx="-71" cy="72" rx="5.5" ry="8.5"/><ellipse cx="-71" cy="-72" rx="5.5" ry="8.5"/></g><path d="M-5 -148 V-136 M61 -78 V-66 M61 66 V78 M-5 136 V148 M-71 66 V78 M-71 -78 V-66" fill="none" stroke="#68897e" stroke-width="2"/><path d="M27 -132 L38 -119 M69 -39 L72 -18 M70 31 L66 52 M35 122 L25 132 M-37 130 L-48 116 M-81 33 L-82 12 M-81 -31 L-77 -51 M-46 -120 L-34 -132" fill="none" stroke="#081f29" stroke-width="5"/><path d="M28 -133 L39 -120 M70 -40 L73 -19 M71 30 L67 51 M36 121 L26 131 M-36 129 L-47 115 M-80 32 L-81 11 M-80 -32 L-76 -52 M-45 -121 L-33 -133" fill="none" stroke="#6e877d" stroke-width="1.2"/><path d="M-95 -22 L-112 -18 L-112 22 L-95 27 Z" fill="#1c3942" stroke="#7d9889" stroke-width="1.5"/><path d="M-111 -9 L-132 -4 L-132 11 L-111 14 Z" fill="#547b73"/><ellipse cx="-132" cy="3.5" rx="5" ry="8" fill="#b1c7ad"/></g><path d="M190 936 L348 1032 M185 942 L343 1038 M181 948 L339 1044" fill="none" stroke="#f6e3c5" stroke-width="1.3"/><path d="M596 880 L631 901 L616 931 L581 910 Z" fill="#162f37" stroke="#5d7e75" stroke-width="1.5"/><path d="M596 880 L603 874 L638 895 L631 901 Z" fill="#a3b49c"/><path d="M631 901 L638 895 L623 925 L616 931 Z" fill="#426762"/><ellipse cx="609" cy="904" rx="6" ry="10" transform="rotate(31 609 904)" fill="#0b242d" stroke="#89a68f" stroke-width="1.5"/><path d="M83 900 L121 869 L150 888 L112 921 Z" fill="#1c343b" stroke="#6b8277" stroke-width="1.5"/><path d="M83 900 L83 914 L112 936 L112 921 Z" fill="#0d252e"/><path d="M112 921 L150 888 V903 L112 936 Z" fill="#35534f"/><path d="M96 900 L122 880" fill="none" stroke="#ff9369" stroke-width="3"/></g></svg><text fill="#ffffff" font-size="30" font-family="DejaVu Sans,Arial,sans-serif"><tspan x="48" y="1140">Author of the Hacker Manifesto</tspan></text><text fill="#d8dde5" font-size="22" font-family="DejaVu Sans,Arial,sans-serif"><tspan x="48" y="1290">“The Conscience of a Hacker,” written after his arrest</tspan></text><text fill="#ff9369" font-size="18" font-family="DejaVu Sans,Arial,sans-serif"><tspan x="48" y="1442">007 / LEGENDARY / CONTRIBUTION STUDY</tspan></text></svg>