<svg xmlns="http://www.w3.org/2000/svg" viewBox="0 0 1000 1000" width="1000" height="1000"><defs><radialGradient id="bg" cx="48%" cy="38%" r="76%"><stop offset="0" stop-color="#34413f"/><stop offset=".48" stop-color="#202d2e"/><stop offset="1" stop-color="#111a20"/></radialGradient><radialGradient id="shadow"><stop offset="0" stop-color="#020c10" stop-opacity=".75"/><stop offset=".57" stop-color="#061114" stop-opacity=".43"/><stop offset="1" stop-color="#071217" stop-opacity="0"/></radialGradient><linearGradient id="paper" x1="0" y1="0" x2=".65" y2="1"><stop offset="0" stop-color="#fff7e3"/><stop offset=".48" stop-color="#e9ead8"/><stop offset="1" stop-color="#c2cdb8"/></linearGradient><linearGradient id="edge" x1="0" y1="0" x2="0" y2="1"><stop offset="0" stop-color="#b7c1a9"/><stop offset="1" stop-color="#687f71"/></linearGradient><linearGradient id="iron" x1="0" y1="0" x2="1" y2="1"><stop offset="0" stop-color="#62786c"/><stop offset=".47" stop-color="#334b40"/><stop offset="1" stop-color="#172e27"/></linearGradient><linearGradient id="mintTop" gradientUnits="userSpaceOnUse" x1="473" y1="362" x2="840" y2="211"><stop offset="0" stop-color="#43d69a"/><stop offset=".46" stop-color="#64efb4"/><stop offset="1" stop-color="#adfbd3"/></linearGradient><linearGradient id="mintFall" gradientUnits="userSpaceOnUse" x1="473" y1="362" x2="578" y2="613"><stop offset="0" stop-color="#64e3ac"/><stop offset=".27" stop-color="#359e76"/><stop offset=".65" stop-color="#1c6049"/><stop offset="1" stop-color="#123c32"/></linearGradient><linearGradient id="mintLow" gradientUnits="userSpaceOnUse" x1="262" y1="675" x2="578" y2="553"><stop offset="0" stop-color="#96f7c5"/><stop offset=".44" stop-color="#64efb4"/><stop offset="1" stop-color="#2c8f67"/></linearGradient><linearGradient id="coral" x1="0" y1="0" x2="1" y2="1"><stop offset="0" stop-color="#ffae8d"/><stop offset=".55" stop-color="#ee876f"/><stop offset="1" stop-color="#ae5654"/></linearGradient><clipPath id="ring"><path d="M506 267 791 429 533 578 248 416Z M507 337 372 415 532 506 667 428Z" clip-rule="evenodd"/></clipPath><clipPath id="lower"><path d="M473 553 578 613 367 735 262 675Z"/></clipPath></defs><rect width="1000" height="1000" fill="url(#bg)"/><ellipse cx="496" cy="744" rx="386" ry="177" fill="url(#shadow)"/><ellipse cx="371" cy="829" rx="249" ry="81" fill="url(#shadow)"/><ellipse cx="780" cy="388" rx="150" ry="74" fill="url(#shadow)"/><g fill="none" stroke="#92b39f" stroke-width=".8" opacity=".12"><path d="M132 788C191 854 348 904 495 889"/><path d="M141 807C231 886 406 925 551 895"/><path d="M633 833C727 813 816 771 854 723"/><path d="M667 851C756 825 827 783 862 742"/></g><g><path d="M537 251 747 371 901 283 901 299 747 388 537 268Z" fill="#152c27"/><path d="M537 251 747 371 747 388 537 268Z" fill="#506359"/><path d="M542 265 747 382 896 296" fill="none" stroke="#879b85" stroke-width="1.2"/><path d="M537 232 747 352 747 375 537 255Z" fill="url(#edge)"/><path d="M901 264 747 352 747 375 901 287Z" fill="#5a7567"/><path d="M691 144 901 264 747 352 537 232Z" fill="#253d33"/><path d="M537 249 747 369 901 281" fill="none" stroke="#d4dac2" stroke-width="1"/><g transform="matrix(.875 .5 -.875 .5 691 144)"><path d="M0 22 240 22 246 28 6 28Z" fill="#98534c"/><path d="M240 0 240 22 246 28 246 6Z" fill="#ad6456"/><rect width="240" height="22" rx="2" fill="url(#coral)"/><path d="M8 4H232" fill="none" stroke="#ffceb1" stroke-width="1"/><path d="M0 52 240 52 246 58 6 58Z" fill="#778b76"/><path d="M240 30 240 52 246 58 246 36Z" fill="#9eae96"/><rect y="30" width="240" height="22" rx="2" fill="url(#paper)"/><path d="M8 34H232" fill="none" stroke="#fff9e5" stroke-width="1"/><path d="M0 82 240 82 246 88 6 88Z" fill="#748775"/><path d="M240 60 240 82 246 88 246 66Z" fill="#9fae98"/><rect y="60" width="240" height="22" rx="2" fill="url(#paper)"/><path d="M8 64H232" fill="none" stroke="#fff9e5" stroke-width="1"/><path d="M0 112 240 112 246 118 6 118Z" fill="#728571"/><path d="M240 90 240 112 246 118 246 96Z" fill="#9daa94"/><rect y="90" width="240" height="22" rx="2" fill="url(#paper)"/><path d="M8 94H232" fill="none" stroke="#fff9e5" stroke-width="1"/><path d="M0 142 240 142 246 148 6 148Z" fill="#6c816e"/><path d="M240 120 240 142 246 148 246 126Z" fill="#95a68e"/><rect y="120" width="240" height="22" rx="2" fill="url(#paper)"/><path d="M8 124H232" fill="none" stroke="#fff9e5" stroke-width="1"/><path d="M0 172 240 172 246 178 6 178Z" fill="#687e6b"/><path d="M240 150 240 172 246 178 246 156Z" fill="#91a28a"/><rect y="150" width="240" height="22" rx="2" fill="url(#paper)"/><path d="M8 154H232" fill="none" stroke="#fff9e5" stroke-width="1"/><g fill="#324a3c"><circle cx="13" cy="12" r="2.5"/><circle cx="227" cy="12" r="2.5"/><circle cx="13" cy="42" r="2.5"/><circle cx="227" cy="42" r="2.5"/><circle cx="13" cy="72" r="2.5"/><circle cx="227" cy="72" r="2.5"/><circle cx="13" cy="102" r="2.5"/><circle cx="227" cy="102" r="2.5"/><circle cx="13" cy="132" r="2.5"/><circle cx="227" cy="132" r="2.5"/><circle cx="13" cy="162" r="2.5"/><circle cx="227" cy="162" r="2.5"/></g><g stroke="#7b9079" stroke-width=".75"><path d="M27 9H71M27 14H55M219 9V16"/><path d="M27 39H71M27 44H55M219 39V46"/><path d="M27 69H71M27 74H55M219 69V76"/><path d="M27 99H71M27 104H55M219 99V106"/><path d="M27 129H71M27 134H55M219 129V136"/><path d="M27 159H71M27 164H55M219 159V166"/></g><rect x="87" y="35" width="131" height="12" rx="2" fill="#253e31"/><path d="M88 36H217" stroke="#aab89c" stroke-width="1"/></g></g><g><path d="M169 703 403 838 578 737 578 758 403 859 169 724Z" fill="#152724"/><path d="M169 703 403 838 403 859 169 724Z" fill="#42564b"/><path d="M174 721 403 853 573 755" fill="none" stroke="#9cab95" stroke-width="1"/><path d="M169 685 403 820 403 844 169 709Z" fill="url(#edge)"/><path d="M578 719 403 820 403 844 578 743Z" fill="#5e7565"/><path d="M169 698 403 833 403 840 169 705Z" fill="url(#coral)"/><path d="M403 833 578 732 578 739 403 840Z" fill="#a95951"/><path d="M344 584 578 719 403 820 169 685Z" fill="#293f34"/><path d="M169 685 403 820 578 719" fill="none" stroke="#d6ddc3" stroke-width="1.1"/><g transform="matrix(.8666667 .5 -.8663366 .5 344 584)"><rect x="17" y="19" width="87" height="180" rx="3" fill="#102a23"/><rect x="112" y="19" width="155" height="180" rx="3" fill="#102a23"/><rect x="10" y="12" width="87" height="180" rx="3" fill="url(#paper)"/><rect x="105" y="12" width="155" height="180" rx="3" fill="url(#paper)"/><rect x="19" y="22" width="69" height="160" rx="2" fill="none" stroke="#8f9e86" stroke-width="1"/><rect x="26" y="29" width="55" height="146" rx="2" fill="#c2d0b6"/><path d="M31 35H76V167" fill="none" stroke="#f9f2dc" stroke-width="1"/><path d="M38 43V152M44 43V152M50 43V152M56 43V152M62 43V152M68 43V152" fill="none" stroke="#738d75" stroke-width=".7"/><rect x="118" y="26" width="129" height="97" rx="3" fill="#2b4538"/><rect x="124" y="32" width="117" height="85" rx="1" fill="none" stroke="#8ca88c" stroke-width="1"/><path d="M130 41H234V61H130Z" fill="#536d53"/><path d="M130 69H178V107H130Z" fill="#bdd2b2"/><path d="M187 69H234V107H187Z" fill="#739578"/><path d="M135 74H173M192 74H229" stroke="#ecedd2" stroke-width="1"/><rect x="118" y="137" width="57" height="41" rx="2" fill="#697f65"/><rect x="187" y="137" width="60" height="41" rx="2" fill="#becbb0"/><rect x="123" y="142" width="47" height="31" rx="1" fill="none" stroke="#dfe6ca" stroke-width=".8"/><path d="M193 144H238M193 151H238M193 158H221M193 165H231" fill="none" stroke="#819378" stroke-width=".8"/><g fill="#2d4636"><circle cx="16" cy="18" r="2"/><circle cx="91" cy="18" r="2"/><circle cx="16" cy="186" r="2"/><circle cx="91" cy="186" r="2"/><circle cx="111" cy="18" r="2"/><circle cx="254" cy="18" r="2"/><circle cx="111" cy="186" r="2"/><circle cx="254" cy="186" r="2"/></g><rect x="235" y="182" width="13" height="5" fill="#dd826b"/></g><g transform="matrix(1 .576923 0 1 169 685)" stroke="#344d3e" stroke-width="1"><path d="M13 18V23M26 18V23M39 18V23M52 18V23M65 18V23M78 18V23M91 18V23M104 18V23M117 18V23M130 18V23M143 18V23M156 18V23M169 18V23M182 18V23M195 18V23M208 18V23M221 18V23"/></g></g><g><path d="M164 447 223 413 248 427 189 461Z" fill="#d3d9c2"/><path d="M164 447 189 461 189 470 164 456Z" fill="#798c77"/><path d="M189 461 248 427 248 436 189 470Z" fill="#476150"/><path d="M171 447 224 417 239 426" fill="none" stroke="#f5edd7" stroke-width="1"/><path d="M185 481 244 447 269 461 210 495Z" fill="#77987d"/><path d="M185 481 210 495 210 504 185 490Z" fill="#3e6752"/><path d="M210 495 269 461 269 470 210 504Z" fill="#294b3d"/><path d="M192 481 245 451 260 460" fill="none" stroke="#c5d7b9" stroke-width="1"/><path d="M205 515 264 481 289 495 230 529Z" fill="#dedfc6"/><path d="M205 515 230 529 230 538 205 524Z" fill="#8b987e"/><path d="M230 529 289 495 289 504 230 538Z" fill="#4b6651"/><path d="M212 515 265 485 280 494" fill="none" stroke="#fff0d5" stroke-width="1"/><path d="M198 455 238 432M219 489 259 466M239 523 279 500" fill="none" stroke="#263e31" stroke-width=".8"/></g><g><path d="M248 510 533 672 533 688 248 526Z" fill="#233a30"/><path d="M791 523 533 672 533 688 791 539Z" fill="#112921"/><path d="M506 361 791 523 533 672 248 510Z M507 431 372 509 532 600 667 522Z" fill="url(#iron)" fill-rule="evenodd" stroke="#82927d" stroke-width=".8"/><path d="M250 520 533 681 789 533" fill="none" stroke="#6f8570" stroke-width="1"/><path d="M257 510 533 666 781 523" fill="none" stroke="#b0bda1" stroke-width=".7"/><path d="M248 476 533 638 533 653 248 491Z" fill="#3f5746"/><path d="M791 489 533 638 533 653 791 504Z" fill="#1b3529"/><path d="M506 327 791 489 533 638 248 476Z M507 397 372 475 532 566 667 488Z" fill="url(#iron)" fill-rule="evenodd" stroke="#718a72" stroke-width=".8"/><path d="M250 483 533 644 789 496" fill="none" stroke="#c0c8aa" stroke-width="1"/><path d="M257 476 533 632 781 489" fill="none" stroke="#afbea0" stroke-width=".8"/><path d="M248 434 266 444 248 454 230 444Z" fill="#9ba98e"/><path d="M230 444 248 454 248 488 230 478Z" fill="#718873"/><path d="M248 454 266 444 266 478 248 488Z" fill="#2d4a37"/><path d="M791 447 809 457 791 467 773 457Z" fill="#a2af93"/><path d="M773 457 791 467 791 501 773 491Z" fill="#69816a"/><path d="M791 467 809 457 809 491 791 501Z" fill="#294531"/><path d="M533 589 550 599 533 609 516 599Z" fill="#ffb190"/><path d="M516 599 533 609 533 643 516 633Z" fill="#c57960"/><path d="M533 609 550 599 550 633 533 643Z" fill="#754a3d"/><path d="M520 607V627M525 610V630" stroke="#e1a07d" stroke-width="1"/><path d="M507 337 667 428 532 506 372 415Z" fill="#102820"/><path d="M372 415 507 337 507 373 372 451Z" fill="#4e6955"/><path d="M507 337 667 428 667 464 507 373Z" fill="#80927a"/><path d="M507 378 631 449 532 506 408 435Z" fill="#19362a"/><g fill="none" stroke-width="1"><path d="M384 426 507 355 649 435 532 503" stroke="#d4ddbd"/><path d="M384 439 507 368 649 448 532 516" stroke="#658a6b"/><path d="M384 452 507 381 649 461 532 529" stroke="#a0b793"/><path d="M384 465 507 394 649 474 532 542" stroke="#506f54"/><path d="M384 478 507 407 649 487 532 555" stroke="#a0b793"/></g><path d="M386 435 438 405 451 413 399 443Z" fill="url(#coral)"/><path d="M392 435 439 408M398 438 445 411" fill="none" stroke="#ffc1a0" stroke-width=".7"/><g stroke="#354d39" stroke-width="2"><path d="M518 351V369M529 358V376M540 364V382M551 370V388M562 376V394M573 383V401M584 389V407M595 395V413M606 402V420M617 408V426M628 414V432M639 420V438M650 427V445"/></g></g><g><path d="M262 675 367 735 367 744 262 684Z" fill="#3b9e70"/><path d="M578 613 367 735 367 744 578 622Z" fill="#246d50"/><path d="M473 553 578 613 367 735 262 675Z" fill="url(#mintLow)"/><path d="M473 362 578 422 578 613 473 553Z" fill="url(#mintFall)"/><path d="M473 362 473 553 262 675" fill="none" stroke="#9ef0bd" stroke-width="1.3"/><path d="M578 422 578 613 367 735" fill="none" stroke="#183f31" stroke-width="1.6"/><g fill="none" stroke="#c5f9d6" stroke-width=".85" opacity=".27"><path d="M483.5 368V559L272.5 681"/><path d="M494 374V565L283 687"/><path d="M504.5 380V571L293.5 693"/><path d="M515 386V577L304 699"/><path d="M525.5 392V583L314.5 705"/><path d="M536 398V589L325 711"/><path d="M546.5 404V595L335.5 717"/><path d="M557 410V601L346 723"/><path d="M567.5 416V607L356.5 729"/></g><path d="M477 550 576 607" fill="none" stroke="#a7edbe" stroke-width="1.1" opacity=".55"/><path d="M277 666 382 726M283 662 388 722" fill="none" stroke="#daffe0" stroke-width=".85" opacity=".65"/><path d="M263 676 366 735" fill="none" stroke="#dbffe5" stroke-width="1.3"/><path d="M270 682 358 732" fill="none" stroke="#216647" stroke-width=".75"/><g clip-path="url(#lower)"><path d="M246 444 532 606 791 457 791 488 532 637 246 475Z" fill="#08271c" opacity=".38"/></g></g><g><path d="M248 416 533 578 533 604 248 442Z" fill="url(#edge)"/><path d="M791 429 533 578 533 604 791 455Z" fill="#79917b"/><path d="M248 438 533 600 791 451" fill="none" stroke="#253f2e" stroke-width="1.3"/><g transform="matrix(1 .568421 0 1 248 416)" fill="#405c45"><rect x="11" y="7" width="3" height="12"/><rect x="22" y="7" width="3" height="12"/><rect x="33" y="7" width="3" height="12"/><rect x="44" y="7" width="3" height="12"/><rect x="55" y="7" width="3" height="12"/><rect x="66" y="7" width="3" height="12"/><rect x="77" y="7" width="3" height="12"/><rect x="88" y="7" width="3" height="12"/><rect x="99" y="7" width="3" height="12"/><rect x="110" y="7" width="3" height="12"/><rect x="121" y="7" width="3" height="12"/><rect x="132" y="7" width="3" height="12"/><rect x="143" y="7" width="3" height="12"/><rect x="154" y="7" width="3" height="12"/><rect x="165" y="7" width="3" height="12"/><rect x="176" y="7" width="3" height="12"/><rect x="187" y="7" width="3" height="12"/><rect x="198" y="7" width="3" height="12"/><rect x="209" y="7" width="3" height="12"/><rect x="220" y="7" width="3" height="12"/><rect x="231" y="7" width="3" height="12"/><rect x="242" y="7" width="3" height="12"/><rect x="253" y="7" width="3" height="12"/><rect x="264" y="7" width="3" height="12"/><path d="M6 4H279" fill="none" stroke="#e4e4c8" stroke-width=".7"/></g><g transform="matrix(1 -.577519 0 1 533 578)"><rect y="21" width="258" height="3" fill="#d77b62"/><path d="M6 5H252" fill="none" stroke="#d2dbc0" stroke-width=".8"/><g fill="#354f39"><rect x="16" y="10" width="10" height="6"/><rect x="36" y="10" width="10" height="6"/><rect x="56" y="10" width="10" height="6"/><rect x="76" y="10" width="10" height="6"/><rect x="96" y="10" width="10" height="6"/><rect x="116" y="10" width="10" height="6"/><rect x="136" y="10" width="10" height="6"/><rect x="156" y="10" width="10" height="6"/><rect x="176" y="10" width="10" height="6"/><rect x="196" y="10" width="10" height="6"/><rect x="216" y="10" width="10" height="6"/><rect x="236" y="10" width="10" height="6"/></g></g><path d="M506 267 791 429 533 578 248 416Z M507 337 372 415 532 506 667 428Z" fill="url(#paper)" fill-rule="evenodd" stroke="#eef0d8" stroke-width=".85"/><path d="M506 280 768 429 533 563 271 416Z" fill="none" stroke="#9da98f" stroke-width=".8"/><path d="M507 327 685 428 532 517 354 415Z" fill="none" stroke="#8f9f84" stroke-width=".9"/><path d="M507 337 372 415 532 506" fill="none" stroke="#fdf9df" stroke-width="1.5"/><path d="M507 337 667 428 532 506" fill="none" stroke="#677f63" stroke-width="1.2"/><path d="M312 389 453 308 471 318 330 399Z" fill="#294632"/><path d="M317 390 455 311" fill="none" stroke="#a8b996" stroke-width=".8"/><g fill="#86ba8e"><path d="M324 387 333 382 341 387 332 392Z"/><path d="M340 378 349 373 357 378 348 383Z"/><path d="M356 369 365 364 373 369 364 374Z"/><path d="M372 360 381 355 389 360 380 365Z"/><path d="M388 351 397 346 405 351 396 356Z"/><path d="M404 342 413 337 421 342 412 347Z"/><path d="M420 333 429 328 437 333 428 338Z"/><path d="M436 324 445 319 453 324 444 329Z"/></g><g fill="none" stroke="#8f9f83" stroke-width=".7"><path d="M339 402 475 324"/><path d="M346 406 482 328"/><path d="M353 410 489 332"/><path d="M285 415 306 427"/><path d="M291 411 312 423"/><path d="M297 408 318 420"/></g><path d="M317 449 473 538 495 525 339 436Z" fill="none" stroke="#98a78a" stroke-width=".9"/><path d="M324 450 474 535" fill="none" stroke="#fff8de" stroke-width="1"/><path d="M338 464 415 508 428 500 351 456Z" fill="#b7c4a8"/><path d="M344 462 421 506" fill="none" stroke="#7d9376" stroke-width=".7"/><path d="M356 461 343 469M372 470 359 478M388 479 375 487M404 488 391 496M420 497 407 505" fill="none" stroke="#e7e7cd" stroke-width=".9"/><path d="M435 512 461 527 473 520 447 505Z" fill="#476449"/><path d="M441 512 462 524" fill="none" stroke="#a6c099" stroke-width=".8"/><path d="M720 444 735 453 592 536 577 527Z" fill="url(#coral)"/><path d="M720 444 577 527" fill="none" stroke="#ffcfaa" stroke-width="1.1"/><path d="M729 453 592 532" fill="none" stroke="#874c43" stroke-width=".8"/><g stroke="#eeb094" stroke-width=".8"><path d="M708 451 719 457M694 459 705 465M680 467 691 473M666 475 677 481M652 483 663 489M638 491 649 497M624 499 635 505M610 507 621 513M596 515 607 521"/></g><path d="M678 440 693 449 558 527 543 518Z" fill="none" stroke="#8e9f83" stroke-width=".8"/><path d="M684 449 558 522" fill="none" stroke="#f9f4d9" stroke-width="1"/><g><ellipse cx="506" cy="299" rx="7.5" ry="4.3" fill="#74866d"/><ellipse cx="506" cy="298" rx="5.5" ry="3" fill="#243e2d"/><ellipse cx="506" cy="297.5" rx="2" ry="1" fill="#dce8c6"/><ellipse cx="736" cy="430" rx="7.5" ry="4.3" fill="#74866d"/><ellipse cx="736" cy="429" rx="5.5" ry="3" fill="#243e2d"/><ellipse cx="736" cy="428.5" rx="2" ry="1" fill="#dce8c6"/><ellipse cx="533" cy="543" rx="7.5" ry="4.3" fill="#74866d"/><ellipse cx="533" cy="542" rx="5.5" ry="3" fill="#243e2d"/><ellipse cx="533" cy="541.5" rx="2" ry="1" fill="#dce8c6"/><ellipse cx="309" cy="416" rx="7.5" ry="4.3" fill="#74866d"/><ellipse cx="309" cy="415" rx="5.5" ry="3" fill="#243e2d"/><ellipse cx="309" cy="414.5" rx="2" ry="1" fill="#dce8c6"/></g><g clip-path="url(#ring)"><path d="M735 226 840 286 578 437 473 377Z" fill="#163b2b" opacity=".32"/><path d="M735 220 840 280 578 431 473 371Z" fill="#173e2b" opacity=".2"/></g></g><g><path d="M840 271 578 422 578 431 840 280Z" fill="#227c58"/><path d="M735 211 473 362 473 369 735 218Z" fill="#62bf90"/><path d="M735 211 840 271 578 422 473 362Z" fill="url(#mintTop)" stroke="#96f4c3" stroke-width=".85"/><path d="M735 211 840 271" fill="none" stroke="#d2ffe0" stroke-width="1.6"/><path d="M735 212 474 362" fill="none" stroke="#cbffdc" stroke-width="1.3"/><g fill="none" stroke="#246f4e" stroke-width=".75" opacity=".27"><path d="M745.5 217 483.5 368"/><path d="M756 223 494 374"/><path d="M766.5 229 504.5 380"/><path d="M777 235 515 386"/><path d="M787.5 241 525.5 392"/><path d="M798 247 536 398"/><path d="M808.5 253 546.5 404"/><path d="M819 259 557 410"/><path d="M829.5 265 567.5 416"/></g><path d="M777 235 790 242.5 528 393.5 515 386Z" fill="#e4ffe6" opacity=".15"/><path d="M495 349 600 409M501 345.5 606 405.5" fill="none" stroke="#dcffe0" stroke-width=".8" opacity=".65"/><path d="M473 362 578 422" fill="none" stroke="#cbffda" stroke-width="1.5"/><path d="M474 364 577 423" fill="none" stroke="#21885e" stroke-width=".7"/><path d="M840 275 582 424" fill="none" stroke="#55b482" stroke-width=".7"/><g fill="none" stroke="#e0ffe3" stroke-width=".75" opacity=".63"><path d="M742 239 758 230"/><path d="M747 242 763 233"/><path d="M752 245 768 236"/><path d="M634 337 655 325"/><path d="M639 340 649 334"/><path d="M644 343 665 331"/><path d="M540 374 558 364"/><path d="M545 377 554 372"/></g></g><g fill="none" stroke-linecap="round"><path d="M248 416 533 578" stroke="#fff6db" stroke-width="1.4"/><path d="M533 578 791 429" stroke="#e3ead0" stroke-width="1.1"/><path d="M248 442 533 604" stroke="#a8b493" stroke-width=".65"/><path d="M169 685 403 820" stroke="#f8efd4" stroke-width="1"/><path d="M537 232 571 251" stroke="#f2efd4" stroke-width="1"/></g></svg>