<svg xmlns="http://www.w3.org/2000/svg" viewBox="0 0 1000 1490" width="1000" height="1490"><title>Guido van Rossum — Open Source Legends v2</title><rect width="1000" height="1490" rx="26" fill="#10141c"/><text fill="#64efb4" font-size="18" font-family="DejaVu Sans,Arial,sans-serif"><tspan x="48" y="64">OPEN SOURCE LEGENDS / V2</tspan></text><text fill="#ffffff" font-size="40" font-family="DejaVu Sans,Arial,sans-serif"><tspan x="48" y="122">Guido van Rossum</tspan></text><svg x="40" y="160" width="920" height="920" viewBox="0 0 1000 1000"><title>The open grammar</title><desc>A sculptural interpretation of the creation of Python. Asymmetric, indented ribbons unfold from a luminous open center, forming an intricate architectural bloom.</desc><defs><radialGradient id="background" cx="47%" cy="43%" r="72%"><stop offset="0" stop-color="#2c4140"/><stop offset="0.56" stop-color="#1c2b2d"/><stop offset="1" stop-color="#121a1e"/></radialGradient><radialGradient id="shadow"><stop offset="0" stop-color="#070f12" stop-opacity="0.7"/><stop offset="0.65" stop-color="#070f12" stop-opacity="0.3"/><stop offset="1" stop-color="#070f12" stop-opacity="0"/></radialGradient><linearGradient id="jade" x1="210" y1="200" x2="727" y2="836" gradientUnits="userSpaceOnUse"><stop offset="0" stop-color="#c7ffdc"/><stop offset="0.32" stop-color="#64efb4"/><stop offset="0.7" stop-color="#50c496"/><stop offset="1" stop-color="#2c896b"/></linearGradient><linearGradient id="upright" x1="354" y1="137" x2="492" y2="420" gradientUnits="userSpaceOnUse"><stop offset="0" stop-color="#e0ffdf"/><stop offset="0.42" stop-color="#8df3bf"/><stop offset="1" stop-color="#36a87d"/></linearGradient><linearGradient id="ivory" x1="473" y1="175" x2="595" y2="789" gradientUnits="userSpaceOnUse"><stop offset="0" stop-color="#fff3d9"/><stop offset="0.48" stop-color="#e2e5c9"/><stop offset="1" stop-color="#aabca6"/></linearGradient><linearGradient id="coral" x1="747" y1="380" x2="797" y2="564" gradientUnits="userSpaceOnUse"><stop offset="0" stop-color="#ffd0ac"/><stop offset="0.42" stop-color="#f4937e"/><stop offset="1" stop-color="#bd5d62"/></linearGradient><linearGradient id="greenWall" x1="348" y1="430" x2="691" y2="668" gradientUnits="userSpaceOnUse"><stop offset="0" stop-color="#406b56"/><stop offset="0.48" stop-color="#173b31"/><stop offset="1" stop-color="#2e624b"/></linearGradient><linearGradient id="hub" x1="449" y1="385" x2="563" y2="610" gradientUnits="userSpaceOnUse"><stop offset="0" stop-color="#edf4d5"/><stop offset="0.38" stop-color="#a7f5c7"/><stop offset="0.69" stop-color="#64efb4"/><stop offset="1" stop-color="#3d9f77"/></linearGradient><radialGradient id="well" cx="43%" cy="68%" r="76%"><stop offset="0" stop-color="#0a1317"/><stop offset="0.64" stop-color="#10231f"/><stop offset="1" stop-color="#376e52"/></radialGradient><linearGradient id="lowerBlade" x1="553" y1="607" x2="748" y2="829" gradientUnits="userSpaceOnUse"><stop offset="0" stop-color="#b9ffd5"/><stop offset="0.4" stop-color="#64efb4"/><stop offset="1" stop-color="#42a47d"/></linearGradient><clipPath id="wellClip"><ellipse cx="511" cy="485" rx="91" ry="64"/></clipPath><clipPath id="hubClip"><path fill-rule="evenodd" clip-rule="evenodd" d="M661 485A150 110 0 1 1 361 485A150 110 0 1 1 661 485ZM602 485A91 64 0 1 1 420 485A91 64 0 1 1 602 485Z"/></clipPath></defs><rect width="1000" height="1000" fill="url(#background)"/><ellipse cx="511" cy="767" rx="371" ry="127" fill="url(#shadow)"/><ellipse cx="528" cy="537" rx="343" ry="284" fill="url(#shadow)" opacity="0.45"/><g fill="none" stroke="#72998b" stroke-width="1"><path d="M124 578C78 458 127 275 276 194" opacity="0.19"/><path d="M144 585C103 463 144 305 263 226" opacity="0.09"/><path d="M581 104C744 115 879 228 902 379" opacity="0.16"/><path d="M897 590C854 745 746 860 555 901" opacity="0.17"/><path d="M883 587C852 706 774 805 672 854" opacity="0.08"/><path d="M126 706C159 783 220 830 286 855" opacity="0.17"/></g><g fill="#071215" opacity="0.24" transform="translate(12 39)"><path d="M461 431L376 315Q361 295 354 263L333 164Q330 149 344 145L434 118Q450 113 459 127L500 192Q513 214 511 238L498 345L540 395Z"/><path d="M548 411L576 343L595 233Q598 212 615 208L739 172Q757 167 768 182L804 235Q812 250 803 266L742 355L647 416L606 461Z"/><path d="M423 441L351 327Q337 304 319 288L290 264Q257 237 229 263L155 337Q129 363 144 393L177 450Q191 479 222 478L343 467L388 510L444 474Z"/><path d="M447 558L493 612L445 696L398 753L315 803Q299 813 284 804L207 766Q190 757 197 739L223 672L337 578L407 546Z"/><path d="M582 563L653 584L738 663Q757 680 754 705L738 811Q735 834 714 841L629 860Q606 866 594 845L552 770Q544 755 546 737L562 660L524 614Z"/><path d="M621 456L753 378Q768 370 784 378L871 423Q885 430 881 446L867 491Q864 503 853 509L758 564Q746 571 732 566L611 533Z"/></g><g><path d="M321 459L442 354L574 352L697 463L667 591L553 660L395 621Z" fill="#1a302c" stroke="#466455" stroke-width="1.4"/><path d="M352 463L449 380L565 378L666 471L641 573L546 631L409 596Z" fill="#152622"/><path d="M337 480L439 412L455 427L354 501Z" fill="#648a70"/><path d="M585 394L666 465L653 486L572 413Z" fill="#57785f"/><path d="M629 566L557 624L541 610L614 550Z" fill="#6a9276"/><path d="M422 586L450 610L428 638L396 620Z" fill="#406450"/><path d="M446 368L464 351L481 371L464 389Z" fill="#7ca98c"/><path d="M337 480L354 501L354 516L337 495Z" fill="#233c32"/><path d="M557 624L557 642L629 584L629 566Z" fill="#20392f"/><path d="M393 617L429 638L446 619" fill="none" stroke="#91b59a" stroke-width="1"/></g><g><path d="M461 431L376 315Q361 295 354 263L333 164Q330 149 344 145L434 118Q450 113 459 127L500 192Q513 214 511 238L498 345L540 395ZM435 351L414 314Q403 295 399 271L383 182L424 170L461 228L450 323L470 348Z" fill="#285943" fill-rule="evenodd" transform="translate(0 23)"/><path d="M459 127L500 192Q513 214 511 238L498 345L540 395L540 418L498 368L511 261Q513 237 500 215L459 150Z" fill="#214c3b"/><path d="M383 182L399 271Q403 295 414 314L435 351L435 374L414 337Q403 318 399 294L383 205Z" fill="#365e48"/><path d="M461 431L376 315Q361 295 354 263L333 164Q330 149 344 145L434 118Q450 113 459 127L500 192Q513 214 511 238L498 345L540 395ZM435 351L414 314Q403 295 399 271L383 182L424 170L461 228L450 323L470 348Z" fill="url(#upright)" fill-rule="evenodd"/><path d="M461 431L376 315Q361 295 354 263L333 164Q330 149 344 145L434 118Q450 113 459 127" fill="none" stroke="#e3ffdf" stroke-width="2"/><path d="M347 161L371 273Q376 295 389 315L440 390" fill="none" stroke="#43916b" stroke-width="7"/><path d="M347 161L371 273Q376 295 389 315L440 390" fill="none" stroke="#b4f7ca" stroke-width="1.3"/><path d="M441 142L485 215Q489 223 488 238L476 332L505 371" fill="none" stroke="#2e805d" stroke-width="6"/><path d="M439 140L482 213Q487 222 485 237L473 331L502 370" fill="none" stroke="#c7ffda" stroke-width="1.5"/><path d="M383 182L424 170L461 228L450 323L470 348L435 351" fill="none" stroke="#174e38" stroke-width="1.7"/><path d="M387 205L402 281Q407 301 420 324" fill="none" stroke="#8ebc8c" stroke-width="1"/><path d="M370 151L411 139L415 151L373 163Z" fill="#f1edcf"/><path d="M370 151L373 163L375 173L372 161Z" fill="#769b77"/><path d="M378 150L410 141" fill="none" stroke="#fff9e4" stroke-width="1.2"/><g fill="none" stroke="#2c7052" stroke-width="1.2"><path d="M365 210L377 207"/><path d="M369 228L381 225"/><path d="M373 246L385 243"/><path d="M378 264L390 261"/><path d="M384 281L395 277"/></g><g stroke="#598268" stroke-width="1"><path d="M508 246L508 263"/><path d="M506 264L506 281"/><path d="M504 282L504 299"/><path d="M502 300L502 317"/><path d="M500 318L500 335"/></g><path d="M416 361L440 397L452 389L428 352Z" fill="#4eac80"/><path d="M422 364L440 391" fill="none" stroke="#ccffdb" stroke-width="1.5"/></g><g><path d="M548 411L576 343L595 233Q598 212 615 208L739 172Q757 167 768 182L804 235Q812 250 803 266L742 355L647 416L606 461ZM612 354L632 259L722 232L747 252L714 291L684 300L672 327Z" fill="#707f6c" fill-rule="evenodd" transform="translate(0 22)"/><path d="M804 235Q812 250 803 266L742 355L647 416L606 461L606 483L647 438L742 377L803 288Q812 272 804 257Z" fill="#637560"/><path d="M632 259L722 232L747 252L747 274L722 254L632 281Z" fill="#a8af8e"/><path d="M612 354L632 259L632 281L617 355Z" fill="#4b6955"/><path d="M548 411L576 343L595 233Q598 212 615 208L739 172Q757 167 768 182L804 235Q812 250 803 266L742 355L647 416L606 461ZM612 354L632 259L722 232L747 252L714 291L684 300L672 327Z" fill="url(#ivory)" fill-rule="evenodd"/><path d="M548 411L576 343L595 233Q598 212 615 208L739 172Q757 167 768 182L804 235" fill="none" stroke="#fff9e6" stroke-width="2"/><path d="M600 373L619 241L735 199L785 244L728 335L646 393" fill="none" stroke="#82977e" stroke-width="8" stroke-linejoin="round"/><path d="M598 373L617 240L735 196L788 244L730 337L648 395" fill="none" stroke="#f9f6dc" stroke-width="1.4"/><path d="M612 354L632 259L722 232L747 252L714 291L684 300L672 327Z" fill="none" stroke="#536f55" stroke-width="1.5"/><path d="M621 352L678 328L690 309L720 300L745 270" fill="none" stroke="#c8d8b3" stroke-width="1"/><path d="M614 223L656 210L659 218L617 231Z" fill="#b5c4a6"/><path d="M624 222L653 213" fill="none" stroke="#5c7b62" stroke-width="1.2"/><path d="M739 172Q757 167 768 182L778 197L759 206L739 177Z" fill="#f4a98d"/><path d="M747 181L763 202" fill="none" stroke="#ffe0b9" stroke-width="1.4"/><path d="M745 339L749 345L653 407L649 401Z" fill="#c5d9b7"/><path d="M567 389L587 404L582 413L562 398Z" fill="#4f745b"/><path d="M575 371L595 386L591 394L571 379Z" fill="#86a088"/><path d="M583 351L603 366L599 374L579 359Z" fill="#aac0a1"/><g stroke="#9baa8b" stroke-width="1"><path d="M790 287L790 303"/><path d="M782 299L782 316"/><path d="M774 311L774 328"/><path d="M766 323L766 340"/><path d="M758 335L758 352"/><path d="M747 349L747 365"/><path d="M732 362L732 380"/><path d="M717 372L717 390"/><path d="M702 382L702 400"/><path d="M687 392L687 410"/></g><path d="M601 433L619 415L627 422L609 440Z" fill="#4d7158"/><path d="M602 431L619 414" fill="none" stroke="#fff6d9" stroke-width="1.3"/></g><g><path d="M423 441L351 327Q337 304 319 288L290 264Q257 237 229 263L155 337Q129 363 144 393L177 450Q191 479 222 478L343 467L388 510L444 474ZM345 418L300 351L268 320Q255 309 244 320L202 361Q193 370 201 382L220 414Q224 422 234 421Z" fill="#214b39" fill-rule="evenodd" transform="translate(0 24)"/><path d="M144 393L177 450Q191 479 222 478L343 467L388 510L388 534L343 491L222 502Q191 503 177 474L144 417Z" fill="url(#greenWall)"/><path d="M202 361L202 382L220 435Q224 443 234 442L345 439L345 418L234 421Q224 422 220 414L201 382Q193 370 202 361Z" fill="#28513b"/><path d="M423 441L351 327Q337 304 319 288L290 264Q257 237 229 263L155 337Q129 363 144 393L177 450Q191 479 222 478L343 467L388 510L444 474ZM345 418L300 351L268 320Q255 309 244 320L202 361Q193 370 201 382L220 414Q224 422 234 421Z" fill="url(#jade)" fill-rule="evenodd"/><path d="M423 441L351 327Q337 304 319 288L290 264Q257 237 229 263L155 337Q129 363 144 393" fill="none" stroke="#ccffdc" stroke-width="2.2"/><path d="M388 439L326 349L281 307Q255 285 233 307L185 355Q170 370 182 392L206 433Q211 445 230 442L350 428" fill="none" stroke="#2d8a65" stroke-width="10" stroke-linejoin="round"/><path d="M387 437L325 347L281 304Q254 282 230 305L182 353Q167 369 179 392L204 435Q210 448 230 445L351 431" fill="none" stroke="#baffd5" stroke-width="1.5"/><path d="M345 418L300 351L268 320Q255 309 244 320L202 361Q193 370 201 382L220 414Q224 422 234 421Z" fill="none" stroke="#266d4e" stroke-width="1.6"/><path d="M238 431L328 428" fill="none" stroke="#6a9f74" stroke-width="1.2"/><path d="M351 451L377 480L367 488L341 461L252 468L252 458Z" fill="#a5e9ba"/><path d="M351 451L377 480" fill="none" stroke="#efffe0" stroke-width="1.5"/><path d="M357 474L381 498L394 488L369 463Z" fill="#ed9b81"/><path d="M363 474L381 492" fill="none" stroke="#ffe1ba" stroke-width="1.3"/><path d="M167 342L191 319L199 327L175 350Z" fill="#347f5c"/><path d="M172 342L191 324" fill="none" stroke="#9efbc4" stroke-width="1.1"/><g fill="none" stroke="#3f946a" stroke-width="1.2"><path d="M209 290L218 299"/><path d="M219 279L228 288"/><path d="M231 270L239 280"/><path d="M245 264L250 275"/><path d="M260 263L259 275"/><path d="M275 269L271 280"/><path d="M288 278L281 287"/></g><g stroke="#528365" stroke-width="1.1"><path d="M164 433L164 450"/><path d="M172 447L172 465"/><path d="M181 462L181 480"/><path d="M194 474L194 493"/><path d="M208 479L208 499"/><path d="M226 481L226 499"/><path d="M244 480L244 497"/><path d="M262 478L262 496"/><path d="M280 477L280 494"/><path d="M298 475L298 492"/><path d="M316 473L316 491"/></g><path d="M190 478Q204 488 226 486L333 476" fill="none" stroke="#8eb693" stroke-width="0.9" opacity="0.7"/><path d="M322 309L335 325L329 330L315 315Z" fill="#d4ffdd"/><path d="M335 328L348 345L342 350L329 333Z" fill="#86dba9"/></g><g><path d="M447 558L493 612L445 696L398 753L315 803Q299 813 284 804L207 766Q190 757 197 739L223 672L337 578L407 546ZM401 600L430 626L402 675L371 715L300 759L239 732L256 693L351 617Z" fill="#657f68" fill-rule="evenodd" transform="translate(0 22)"/><path d="M493 612L445 696L398 753L315 803Q299 813 284 804L207 766L207 788L284 826Q299 835 315 825L398 775L445 718L493 634Z" fill="#61755d"/><path d="M239 732L300 759L371 715L402 675L430 626L430 648L402 697L371 737L300 781L239 754Z" fill="#345943"/><path d="M447 558L493 612L445 696L398 753L315 803Q299 813 284 804L207 766Q190 757 197 739L223 672L337 578L407 546ZM401 600L430 626L402 675L371 715L300 759L239 732L256 693L351 617Z" fill="url(#ivory)" fill-rule="evenodd"/><path d="M447 558L407 546L337 578L223 672L197 739Q190 757 207 766" fill="none" stroke="#fff5db" stroke-width="2"/><path d="M457 616L426 685L386 732L300 784L215 741L242 682L346 594L405 570" fill="none" stroke="#8d9e80" stroke-width="7" stroke-linejoin="round"/><path d="M460 616L429 686L388 735L300 788L211 742L239 680L345 591L405 567" fill="none" stroke="#f1f2d3" stroke-width="1.4"/><path d="M401 600L430 626L402 675L371 715L300 759L239 732L256 693L351 617Z" fill="none" stroke="#5b7b5c" stroke-width="1.6"/><path d="M305 768L376 725L409 683" fill="none" stroke="#87a87c" stroke-width="1.2"/><path d="M281 652L308 629L314 636L290 656L283 674L263 690L256 712" fill="none" stroke="#4d795b" stroke-width="3.5" stroke-linejoin="miter"/><path d="M291 660L316 639L322 646L299 666L292 684L273 700L268 716" fill="none" stroke="#9bbc95" stroke-width="3"/><path d="M331 776L364 755L369 761L336 782Z" fill="#526e52"/><path d="M349 750L381 729L386 735L354 756Z" fill="#688464"/><path d="M367 724L397 702L402 708L372 730Z" fill="#91a486"/><path d="M221 760L280 790" fill="none" stroke="#fff7da" stroke-width="2"/><path d="M219 766L280 797" fill="none" stroke="#b4c4a2" stroke-width="1.1"/><g stroke="#9eaf8e" stroke-width="1"><path d="M226 779L226 796"/><path d="M242 787L242 804"/><path d="M258 795L258 812"/><path d="M274 803L274 820"/><path d="M291 810L291 829"/><path d="M310 808L310 824"/><path d="M326 800L326 816"/><path d="M342 790L342 806"/><path d="M358 780L358 796"/><path d="M374 770L374 786"/><path d="M390 760L390 776"/></g><path d="M415 578L440 599L435 606L410 585Z" fill="#75a786"/><path d="M419 579L439 596" fill="none" stroke="#e8f4cf" stroke-width="1"/></g><g><path d="M582 563L653 584L738 663Q757 680 754 705L738 811Q735 834 714 841L629 860Q606 866 594 845L552 770Q544 755 546 737L562 660L524 614ZM612 653L686 701L674 764L651 770L655 793L638 799L596 739L614 680Z" fill="#225c43" fill-rule="evenodd" transform="translate(0 22)"/><path d="M738 663Q757 680 754 705L738 811Q735 834 714 841L629 860Q606 866 594 845L594 867Q606 888 629 882L714 863Q735 856 738 833L754 727Q757 702 738 685Z" fill="#245c44"/><path d="M612 653L686 701L686 723L612 675Z" fill="#468263"/><path d="M596 739L638 799L655 793L655 815L638 821L596 761Z" fill="#1c4432"/><path d="M674 764L651 770L651 792L674 786Z" fill="#5b9e73"/><path d="M582 563L653 584L738 663Q757 680 754 705L738 811Q735 834 714 841L629 860Q606 866 594 845L552 770Q544 755 546 737L562 660L524 614ZM612 653L686 701L674 764L651 770L655 793L638 799L596 739L614 680Z" fill="url(#lowerBlade)" fill-rule="evenodd"/><path d="M582 563L524 614L562 660L546 737Q544 755 552 770L594 845Q606 866 629 860" fill="none" stroke="#b8ffd1" stroke-width="2"/><path d="M579 661L568 742Q566 752 575 767L614 829Q618 837 629 833L705 814L721 704Q723 695 714 687L634 623" fill="none" stroke="#2b8c62" stroke-width="9" stroke-linejoin="round"/><path d="M576 661L565 742Q563 752 572 769L611 832Q617 841 629 837L708 817L724 704Q726 693 717 685L636 621" fill="none" stroke="#baffd1" stroke-width="1.5"/><path d="M612 653L686 701L674 764L651 770L655 793L638 799L596 739L614 680Z" fill="none" stroke="#2c7650" stroke-width="1.8"/><path d="M639 808L664 801L660 779L681 773L692 711" fill="none" stroke="#90d49d" stroke-width="1.2"/><path d="M590 786L600 780L623 815L644 810L646 819L619 826Z" fill="#74d79e"/><path d="M590 786L619 826L646 819" fill="none" stroke="#c8ffda" stroke-width="1.2"/><path d="M689 832L715 825Q724 822 726 810L730 787L737 788L733 815Q730 830 717 834L691 841Z" fill="#d8e8be"/><path d="M695 834L716 828Q726 825 728 813" fill="none" stroke="#fff5d6" stroke-width="1.2"/><path d="M605 615L624 631L617 640L598 624Z" fill="#286f4e"/><path d="M627 634L646 650L639 659L620 643Z" fill="#55b37e"/><path d="M649 653L668 669L661 678L642 662Z" fill="#8cddb0"/><g stroke="#62a17c" stroke-width="1.1"><path d="M607 860L607 877"/><path d="M621 865L621 880"/><path d="M638 861L638 878"/><path d="M655 857L655 874"/><path d="M672 853L672 870"/><path d="M689 849L689 866"/><path d="M706 845L706 862"/><path d="M722 839L722 853"/><path d="M734 825L734 841"/><path d="M741 801L741 818"/><path d="M744 782L744 799"/><path d="M747 763L747 780"/></g><path d="M628 873L710 854" fill="none" stroke="#123c2f" stroke-width="2"/><path d="M573 711L580 680" fill="none" stroke="#d2ffdc" stroke-width="1"/></g><g><path d="M621 456L753 378Q768 370 784 378L871 423Q885 430 881 446L867 491Q864 503 853 509L758 564Q746 571 732 566L611 533ZM684 474L770 426L819 451L811 470L781 488L763 482L725 505L701 492Z" fill="#7c4243" fill-rule="evenodd" transform="translate(0 20)"/><path d="M881 446L867 491Q864 503 853 509L758 564Q746 571 732 566L611 533L611 553L732 586Q746 591 758 584L853 529Q864 523 867 511L881 466Z" fill="#8d4d4d"/><path d="M684 474L770 426L819 451L819 471L770 446L684 494Z" fill="#b87762"/><path d="M763 482L781 488L811 470L811 490L781 508L763 502Z" fill="#5b3937"/><path d="M621 456L753 378Q768 370 784 378L871 423Q885 430 881 446L867 491Q864 503 853 509L758 564Q746 571 732 566L611 533ZM684 474L770 426L819 451L811 470L781 488L763 482L725 505L701 492Z" fill="url(#coral)" fill-rule="evenodd"/><path d="M621 456L753 378Q768 370 784 378L871 423Q885 430 881 446" fill="none" stroke="#ffdfbc" stroke-width="2"/><path d="M661 474L768 406L852 447L841 480L751 539L666 516" fill="none" stroke="#b66c5c" stroke-width="9" stroke-linejoin="round"/><path d="M660 471L767 402L856 446L844 482L752 543L665 519" fill="none" stroke="#ffcfaa" stroke-width="1.5"/><path d="M684 474L770 426L819 451L811 470L781 488L763 482L725 505L701 492Z" fill="none" stroke="#8f4f43" stroke-width="1.7"/><path d="M692 485L727 516L765 493L781 499L807 484" fill="none" stroke="#cd9476" stroke-width="1.1"/><path d="M790 389L808 398L781 414L764 405Z" fill="#a1eabb"/><path d="M790 389L808 398L805 403L786 396Z" fill="#d8f6cf"/><path d="M795 402L781 410" fill="none" stroke="#427559" stroke-width="1"/><path d="M794 540L840 513L844 519L798 546Z" fill="#eaa184"/><path d="M800 539L839 516" fill="none" stroke="#ffd4af" stroke-width="1"/><g stroke="#c1836b" stroke-width="1"><path d="M751 573L751 586"/><path d="M767 565L767 578"/><path d="M783 556L783 569"/><path d="M799 547L799 560"/><path d="M815 538L815 551"/><path d="M831 529L831 542"/><path d="M847 519L847 532"/><path d="M860 508L860 521"/><path d="M869 488L869 500"/><path d="M874 472L874 484"/></g><g fill="none" stroke="#bf7f67" stroke-width="1.2"><path d="M714 411L720 421"/><path d="M727 403L733 413"/><path d="M740 395L746 405"/><path d="M753 388L759 398"/></g><path d="M685 544L716 553L714 560L683 551Z" fill="#844d43"/><path d="M686 543L716 552" fill="none" stroke="#ffd4b0" stroke-width="1.1"/></g><g><path d="M348 487L374 471L391 488L365 506Z" fill="#b9d5ae"/><path d="M348 487L365 506L365 525L348 506Z" fill="#426148"/><path d="M644 483L673 492L669 517L643 508Z" fill="#dfd7b6"/><path d="M643 508L669 517L669 534L643 525Z" fill="#55725a"/><path d="M481 596L517 604L515 639L478 629Z" fill="#86bc90"/><path d="M478 629L515 639L515 650L478 640Z" fill="#244631"/><path d="M487 614L507 619L506 632L486 627Z" fill="#244e39"/><path d="M489 615L505 620" fill="none" stroke="#dcf9cd" stroke-width="1"/></g><g><path d="M361 485C361 424 428 375 511 375C594 375 661 424 661 485L661 513C661 574 594 623 511 623C428 623 361 574 361 513Z" fill="url(#greenWall)"/><path d="M361 513C361 574 428 623 511 623C594 623 661 574 661 513" fill="none" stroke="#679e79" stroke-width="1.4"/><path d="M370 523C386 576 444 611 510 612C574 613 630 579 651 536" fill="none" stroke="#102e24" stroke-width="5"/><path d="M374 526C392 574 446 607 509 608C571 609 624 578 647 537" fill="none" stroke="#4c8865" stroke-width="1"/><g stroke="#609371" stroke-width="1"><path d="M390 551L390 573"/><path d="M405 563L405 584"/><path d="M422 574L422 595"/><path d="M440 583L440 604"/><path d="M460 589L460 610"/><path d="M481 594L481 615"/><path d="M503 596L503 618"/><path d="M525 596L525 617"/><path d="M547 593L547 615"/><path d="M568 588L568 609"/><path d="M589 580L589 601"/><path d="M608 570L608 591"/><path d="M625 557L625 578"/><path d="M640 541L640 562"/></g><g clip-path="url(#wellClip)"><rect x="414" y="414" width="196" height="146" fill="url(#well)"/><ellipse cx="511" cy="513" rx="88" ry="60" fill="#0c1919"/><path d="M420 485C420 450 461 421 511 421C561 421 602 450 602 485L602 509C602 474 561 445 511 445C461 445 420 474 420 509Z" fill="#315b43"/><path d="M423 479C434 448 469 430 512 430C550 430 585 448 598 473" fill="none" stroke="#619275" stroke-width="1.2"/><path d="M430 484C442 457 474 441 511 441C548 441 582 458 593 483" fill="none" stroke="#172f25" stroke-width="3"/><path d="M428 484C434 460 456 443 482 436L478 447C453 456 439 471 436 491Z" fill="#54865f"/><path d="M427 516C445 542 478 554 512 554C542 554 573 542 590 522L590 536L564 560L468 563Z" fill="#245b40"/></g><path d="M661 485A150 110 0 1 1 361 485A150 110 0 1 1 661 485ZM602 485A91 64 0 1 1 420 485A91 64 0 1 1 602 485Z" fill="url(#hub)" fill-rule="evenodd"/><g clip-path="url(#hubClip)"><path d="M343 454L398 364L542 361L559 434L488 457Z" fill="#f2edd2" opacity="0.7"/><path d="M569 351L683 428L645 490L577 463L553 426Z" fill="#a5efc2" opacity="0.7"/><path d="M579 539L668 506L665 626L488 648L481 570Z" fill="#43a87b" opacity="0.45"/><path d="M647 444L660 466L600 483L596 469Z" fill="#ef9b80"/><path d="M650 450L654 457L598 476L597 471Z" fill="#ffd8ac"/><path d="M392 487C392 435 447 394 511 394C550 394 586 407 608 428" fill="none" stroke="#668f6b" stroke-width="2"/><path d="M390 481C393 432 447 391 511 391C550 391 587 405 611 427" fill="none" stroke="#fcf8db" stroke-width="1"/><path d="M400 518C424 557 468 576 511 576C548 576 582 562 605 542" fill="none" stroke="#286c4c" stroke-width="3"/><path d="M403 518C426 554 469 572 511 572C546 572 580 560 603 539" fill="none" stroke="#b0fac7" stroke-width="1.2"/><path d="M412 407L449 441M553 380L541 424M648 432L591 459M631 550L582 520M494 595L500 549M368 510L422 499" fill="none" stroke="#4d8963" stroke-width="1.8"/><path d="M414 405L451 440M555 380L544 423M633 548L585 519M497 595L503 549" fill="none" stroke="#d7ffda" stroke-width="0.9"/><path d="M399 516L427 535L421 542L449 560L443 567L468 581" fill="none" stroke="#245b40" stroke-width="4" stroke-linejoin="miter"/><path d="M404 513L433 533L427 540L455 558L449 565L474 579" fill="none" stroke="#cbffd4" stroke-width="1.5"/><path d="M404 528L417 537L411 544L438 562L432 569L452 580" fill="none" stroke="#64b783" stroke-width="2"/><path d="M473 397L491 394L492 401L474 404Z" fill="#506d50"/><path d="M475 398L489 396" fill="none" stroke="#fbf6d7" stroke-width="1"/><path d="M573 410L588 418L584 425L569 417Z" fill="#548d63"/><path d="M575 411L586 417" fill="none" stroke="#eaffd8" stroke-width="1"/><path d="M624 495L641 493L642 500L625 502Z" fill="#2d6d4c"/><path d="M626 495L639 494" fill="none" stroke="#c9ffd2" stroke-width="1"/><path d="M551 568L568 562L571 568L554 575Z" fill="#276844"/><path d="M553 568L567 563" fill="none" stroke="#beffd0" stroke-width="1"/><path d="M381 462L386 449L393 452L388 465Z" fill="#527453"/><path d="M383 461L387 451" fill="none" stroke="#fbf6d7" stroke-width="1"/></g><path d="M361 485C361 424 428 375 511 375C561 375 605 393 632 421" fill="none" stroke="#f0ffdc" stroke-width="2.3"/><path d="M364 505C377 557 438 595 511 595C584 595 645 557 658 505" fill="none" stroke="#84db9f" stroke-width="1.7"/><path d="M420 485C420 450 461 421 511 421C561 421 602 450 602 485" fill="none" stroke="#386c4c" stroke-width="2.2"/><path d="M427 508C440 533 474 549 511 549C548 549 582 533 595 508" fill="none" stroke="#b7ffd0" stroke-width="2"/><g clip-path="url(#wellClip)"><path d="M550 456L582 474L582 484L550 466Z" fill="#5c8260"/><path d="M561 447L593 466L582 474L550 456Z" fill="#e4edc7"/><path d="M561 447L593 466" fill="none" stroke="#fff6d7" stroke-width="1.4"/><path d="M546 477L568 490L568 500L546 487Z" fill="#346b49"/><path d="M557 468L580 481L568 490L546 477Z" fill="#9af3bc"/><path d="M557 468L580 481" fill="none" stroke="#d1ffda" stroke-width="1.3"/><path d="M539 496L555 504L555 514L539 506Z" fill="#1c4f34"/><path d="M552 487L567 495L555 504L539 496Z" fill="#64efb4"/><path d="M552 487L567 495" fill="none" stroke="#d3ffde" stroke-width="1.2"/></g></g><g><path d="M837 289L876 311L863 327L824 303Z" fill="#102320" opacity="0.6" transform="translate(6 18)"/><path d="M829 293L869 316L869 327L829 304Z" fill="#507660"/><path d="M842 278L881 301L869 316L829 293Z" fill="#cceec8"/><path d="M842 278L881 301" fill="none" stroke="#fff5d9" stroke-width="1.5"/><path d="M846 289L868 302L863 308L841 295Z" fill="#52775a"/><path d="M847 289L867 301" fill="none" stroke="#90e3ac" stroke-width="1"/><path d="M144 615L163 594L181 606L162 628Z" fill="#ec9a83"/><path d="M144 615L162 628L162 640L144 627Z" fill="#835650"/><path d="M162 628L181 606L181 618L162 640Z" fill="#62463f"/><path d="M151 614L162 602L170 608L159 620Z" fill="#254336"/><path d="M145 615L163 594L181 606" fill="none" stroke="#ffcfaf" stroke-width="1.3"/><path d="M224 819L272 846L287 836L239 809Z" fill="#dae7c4"/><path d="M224 819L272 846L272 857L224 830Z" fill="#66826a"/><path d="M272 846L287 836L287 847L272 857Z" fill="#38563f"/><path d="M239 809L287 836" fill="none" stroke="#fff5d6" stroke-width="1.4"/><path d="M239 819L269 836" fill="none" stroke="#7da37c" stroke-width="3"/><path d="M547 152L560 143L581 162L568 171Z" fill="#73d8a2"/><path d="M547 152L568 171L568 180L547 161Z" fill="#315f47"/><path d="M568 171L581 162L581 171L568 180Z" fill="#244534"/><path d="M548 152L560 144L580 162" fill="none" stroke="#caffd7" stroke-width="1.3"/></g><g fill="none" stroke="#82baa0" stroke-width="1" opacity="0.42"><path d="M149 570L140 547L142 530"/><path d="M866 269L853 255"/><path d="M304 847L323 858L345 861"/><path d="M586 145L603 155L612 171"/></g></svg><text fill="#ffffff" font-size="30" font-family="DejaVu Sans,Arial,sans-serif"><tspan x="48" y="1140">Creator of the Python Language</tspan></text><text fill="#d8dde5" font-size="22" font-family="DejaVu Sans,Arial,sans-serif"><tspan x="48" y="1290">Inventor of Python programming language</tspan></text><text fill="#64efb4" font-size="18" font-family="DejaVu Sans,Arial,sans-serif"><tspan x="48" y="1442">005 / ICONIC / CONTRIBUTION STUDY</tspan></text></svg>