<svg xmlns="http://www.w3.org/2000/svg" viewBox="0 0 1000 1000" width="1000" height="1000"><title>The open instrument</title><desc>An open compiler imagined as interlocking folded planes. Unbound source sheets enter an exposed modular bed. A coral component lifts out for modification, while three equally accessible folded editions emerge from the shared mechanism.</desc><defs><linearGradient id="bg" x1="0%" y1="0%" x2="100%" y2="100%"><stop stop-color="#111b1e"/><stop offset="1" stop-color="#273834"/></linearGradient><radialGradient id="light" cx="52%" cy="43%" r="61%"><stop stop-color="#557362" stop-opacity="0.25"/><stop offset="0.62" stop-color="#385a4d" stop-opacity="0.1"/><stop offset="1" stop-color="#182724" stop-opacity="0"/></radialGradient><linearGradient id="shadow" x1="0%" y1="0%" x2="90%" y2="100%"><stop stop-color="#060f0f" stop-opacity="0.7"/><stop offset="1" stop-color="#060f0f" stop-opacity="0"/></linearGradient><linearGradient id="mint" x1="0%" y1="0%" x2="95%" y2="100%"><stop stop-color="#b4ffcf"/><stop offset="0.46" stop-color="#64efb4"/><stop offset="1" stop-color="#35bc8a"/></linearGradient><linearGradient id="wall" x1="0%" y1="0%" x2="100%" y2="20%"><stop stop-color="#71f1b9"/><stop offset="0.3" stop-color="#46c997"/><stop offset="1" stop-color="#258566"/></linearGradient><linearGradient id="base" x1="0%" y1="0%" x2="100%" y2="100%"><stop stop-color="#458c6d"/><stop offset="0.62" stop-color="#366c56"/><stop offset="1" stop-color="#7bddaa"/></linearGradient><linearGradient id="paper" x1="0%" y1="0%" x2="100%" y2="100%"><stop stop-color="#fff9e7"/><stop offset="0.57" stop-color="#e4e7d5"/><stop offset="1" stop-color="#b8cbbc"/></linearGradient><linearGradient id="paperFace" x1="0%" y1="0%" x2="100%" y2="20%"><stop stop-color="#e4e6d0"/><stop offset="1" stop-color="#99b09f"/></linearGradient><linearGradient id="mintFace" x1="0%" y1="0%" x2="100%" y2="0%"><stop stop-color="#73dfae"/><stop offset="1" stop-color="#369c76"/></linearGradient><linearGradient id="bed" x1="0%" y1="0%" x2="100%" y2="100%"><stop stop-color="#304b3e"/><stop offset="1" stop-color="#122822"/></linearGradient><linearGradient id="orange" x1="0%" y1="0%" x2="100%" y2="100%"><stop stop-color="#ffb17b"/><stop offset="0.48" stop-color="#f18458"/><stop offset="1" stop-color="#d45d3e"/></linearGradient><linearGradient id="end" x1="0%" y1="0%" x2="100%" y2="0%"><stop stop-color="#c7ffe0"/><stop offset="1" stop-color="#68d6a4"/></linearGradient></defs><rect width="1000" height="1000" fill="url(#bg)"/><rect width="1000" height="1000" fill="url(#light)"/><path d="M114 716L468 505 923 666 918 733 563 940 304 858Z" fill="url(#shadow)"/><path d="M102 731L331 864 436 855 857 612 890 677 424 947 80 747Z" fill="#081512" opacity="0.2"/><path d="M421 683L713 515 862 601 862 653 570 821Z" fill="#0a1714" opacity="0.5"/><g fill="none" stroke="#739a7f" stroke-width="1" opacity="0.1"><path d="M128 785L367 923 579 800"/><path d="M142 777L381 915 593 792"/><path d="M156 769L395 907 607 784"/><path d="M170 761L409 899 621 776"/><path d="M184 753L423 891 635 768"/><path d="M198 745L437 883 649 760"/><path d="M212 737L451 875 663 752"/><path d="M226 729L465 867 677 744"/><path d="M240 721L479 859 691 736"/><path d="M254 713L493 851 705 728"/></g><path d="M731 660L855 588 900 614 776 686Z" fill="#0a1814" opacity="0.6"/><path d="M129 731L354 861 397 836 173 706Z" fill="#071510" opacity="0.58"/><path d="M413 477L713 651 805 598 505 424Z" fill="url(#base)"/><path d="M413 477L713 651V671L413 497Z" fill="#244c3c"/><path d="M713 651L805 598V618L713 671Z" fill="#4d9b76"/><path d="M430 477L713 641 787 598 504 434Z" fill="none" stroke="#93c6a1" stroke-width="1.3" opacity="0.5"/><path d="M449 478L705 626 767 590 511 442Z" fill="#183a2d"/><path d="M449 478L705 626 705 634 449 486Z" fill="#122f25"/><path d="M413 477L713 651 805 598" fill="none" stroke="#96d1a8" stroke-width="1.2"/><path d="M435 496L699 649" fill="none" stroke="#72b58a" stroke-width="1" opacity="0.45"/><g fill="#a0d0a7"><path d="M734 625L740 621 746 625 740 629Z"/><path d="M759 611L765 607 771 611 765 615Z"/></g><g><path d="M150 699L210 733 160 762 100 728Z" fill="url(#paper)"/><path d="M100 728L160 762V769L100 735Z" fill="#708e79"/><path d="M160 762L210 733V740L160 769Z" fill="#345b46"/><path d="M150 611L210 645V733L150 699Z" fill="url(#paperFace)"/><path d="M210 645L216 642V730L210 733Z" fill="#577d65"/><path d="M260 547L320 582 210 645 150 611Z" fill="url(#paper)"/><path d="M320 582L210 645V652L320 589Z" fill="#789581"/><path d="M260 547L320 582 210 645 150 611Z" fill="none" stroke="#eff9dc" stroke-width="1"/><g transform="matrix(1 0.58 -1 0.58 505 364)"><path d="M42 287H88V382H42Z" fill="none" stroke="#839b81" stroke-width="0.8"/><rect x="47" y="310" width="10" height="57" rx="2" fill="#47634f"/><rect x="72" y="310" width="10" height="29" rx="2" fill="#47634f"/><rect x="72" y="349" width="10" height="18" fill="#71ba8d"/><path d="M49 312V365M74 312V337" fill="none" stroke="#1c3628" stroke-width="1.5"/><path d="M41 293H89M41 299H89M41 376H89" fill="none" stroke="#9bb29b" stroke-width="0.7"/><circle cx="64.5" cy="292" r="2.2" fill="#b2c7ac"/></g><g transform="matrix(1 0.58 0 1 150 611)"><path d="M7 9H53V77H7Z" fill="none" stroke="#799781" stroke-width="0.8"/><rect x="12" y="21" width="10" height="37" rx="1.5" fill="#41634c"/><rect x="37" y="21" width="10" height="21" rx="1.5" fill="#41634c"/><rect x="37" y="51" width="10" height="12" fill="#7ba485"/><path d="M13 23V56M38 23V40" stroke="#213f2d" stroke-width="1.4"/><path d="M6 83H54" fill="none" stroke="#f3f1d5" stroke-width="1"/></g><path d="M150 611L210 645M150 699L210 733M100 728L160 762" fill="none" stroke="#f4f4db" stroke-width="1.4"/><path d="M111 725L161 754 199 732" fill="none" stroke="#8dab90" stroke-width="1"/><path d="M119 721L170 750" stroke="#cadfc3" stroke-width="1"/></g><g><path d="M230 745L290 780 240 809 180 774Z" fill="#a1ecc2"/><path d="M180 774L240 809V816L180 781Z" fill="#4d9670"/><path d="M240 809L290 780V787L240 816Z" fill="#245c42"/><path d="M230 657L290 692V780L230 745Z" fill="url(#mintFace)"/><path d="M290 692L296 688V776L290 780Z" fill="#225b40"/><path d="M340 593L400 628 290 692 230 657Z" fill="url(#mint)"/><path d="M400 628L290 692V699L400 635Z" fill="#3b8f67"/><path d="M340 593L400 628 290 692 230 657Z" fill="none" stroke="#c0ffd8" stroke-width="1"/><g transform="matrix(1 0.58 -1 0.58 505 364)"><path d="M122 287H168V382H122Z" fill="none" stroke="#388861" stroke-width="0.8"/><rect x="127" y="310" width="10" height="57" rx="2" fill="#245d40"/><rect x="152" y="310" width="10" height="29" rx="2" fill="#245d40"/><rect x="152" y="349" width="10" height="18" fill="#b9efc4"/><path d="M129 312V365M154 312V337" fill="none" stroke="#153a29" stroke-width="1.5"/><path d="M121 293H169M121 299H169M121 376H169" fill="none" stroke="#3fa176" stroke-width="0.7"/><circle cx="144.5" cy="292" r="2.2" fill="#399368"/></g><g transform="matrix(1 0.58 0 1 230 657)"><path d="M7 9H53V77H7Z" fill="none" stroke="#2d8960" stroke-width="0.8"/><rect x="12" y="21" width="10" height="37" rx="1.5" fill="#235d3f"/><rect x="37" y="21" width="10" height="21" rx="1.5" fill="#235d3f"/><rect x="37" y="51" width="10" height="12" fill="#b2edc4"/><path d="M13 23V56M38 23V40" stroke="#123b27" stroke-width="1.4"/><path d="M6 83H54" fill="none" stroke="#b9f8cb" stroke-width="1"/></g><path d="M230 657L290 692M230 745L290 780M180 774L240 809" fill="none" stroke="#c5ffda" stroke-width="1.4"/><path d="M191 772L241 801 279 779" fill="none" stroke="#51ad7f" stroke-width="1"/><path d="M199 767L250 796" stroke="#d4ffe0" stroke-width="1"/></g><g><path d="M310 791L370 826 320 855 260 820Z" fill="url(#paper)"/><path d="M260 820L320 855V862L260 827Z" fill="#79977d"/><path d="M320 855L370 826V833L320 862Z" fill="#3b654b"/><path d="M310 703L370 738V826L310 791Z" fill="url(#paperFace)"/><path d="M370 738L376 734V822L370 826Z" fill="#4f775c"/><path d="M420 640L480 674 370 738 310 703Z" fill="url(#paper)"/><path d="M480 674L370 738V745L480 681Z" fill="#76977e"/><path d="M420 640L480 674 370 738 310 703Z" fill="none" stroke="#f0f4da" stroke-width="1"/><g transform="matrix(1 0.58 -1 0.58 505 364)"><path d="M202 287H248V382H202Z" fill="none" stroke="#839b81" stroke-width="0.8"/><rect x="207" y="310" width="10" height="57" rx="2" fill="#47634f"/><rect x="232" y="310" width="10" height="29" rx="2" fill="#47634f"/><rect x="232" y="349" width="10" height="18" fill="#71ba8d"/><path d="M209 312V365M234 312V337" fill="none" stroke="#1c3628" stroke-width="1.5"/><path d="M201 293H249M201 299H249M201 376H249" fill="none" stroke="#9bb29b" stroke-width="0.7"/><circle cx="224.5" cy="292" r="2.2" fill="#b2c7ac"/></g><g transform="matrix(1 0.58 0 1 310 703)"><path d="M7 9H53V77H7Z" fill="none" stroke="#799781" stroke-width="0.8"/><rect x="12" y="21" width="10" height="37" rx="1.5" fill="#41634c"/><rect x="37" y="21" width="10" height="21" rx="1.5" fill="#41634c"/><rect x="37" y="51" width="10" height="12" fill="#7ba485"/><path d="M13 23V56M38 23V40" stroke="#213f2d" stroke-width="1.4"/><path d="M6 83H54" fill="none" stroke="#f3f1d5" stroke-width="1"/></g><path d="M310 703L370 738M310 791L370 826M260 820L320 855" fill="none" stroke="#f6f5da" stroke-width="1.4"/><path d="M271 818L321 847 359 825" fill="none" stroke="#8dab90" stroke-width="1"/><path d="M279 813L330 842" stroke="#d0e0c4" stroke-width="1"/></g><path d="M255 544L485 677V699L255 566Z" fill="#8da68f"/><path d="M785 503L485 677V699L785 525Z" fill="#4f7960"/><path d="M255 551L485 684 785 510M255 560L485 693 785 519" fill="none" stroke="#c9dcc0" stroke-width="1" opacity="0.8"/><path d="M261 564L485 694 779 523" fill="none" stroke="#1d4330" stroke-width="2"/><g transform="matrix(1 0.58 -1 0.58 505 364)"><rect x="30" y="-20" width="230" height="300" fill="#cbdcc3"/><rect x="36" y="-14" width="218" height="288" fill="url(#bed)"/><rect x="43" y="-6" width="204" height="272" fill="#101f1a"/><path d="M40 268H250M40 -9H250M39 0V260M251 0V260" fill="none" stroke="#86b38b" stroke-width="1"/><path d="M45 258H245" stroke="#435c44" stroke-width="5"/><g fill="#c0d5b4" stroke="#365940" stroke-width="1"><circle cx="33" cy="-17" r="2"/><circle cx="257" cy="-17" r="2"/><circle cx="33" cy="277" r="2"/><circle cx="257" cy="277" r="2"/><circle cx="33" cy="72" r="2"/><circle cx="33" cy="174" r="2"/><circle cx="257" cy="72" r="2"/><circle cx="257" cy="174" r="2"/></g><path d="M50 251V267M80 251V267M110 251V267M140 251V267M170 251V267M200 251V267M230 251V267" fill="none" stroke="#a5c4a2" stroke-width="3"/><path d="M50 251V267M80 251V267M110 251V267M140 251V267M170 251V267M200 251V267M230 251V267" fill="none" stroke="#41644b" stroke-width="1"/></g><path d="M303 451L443 370 555 435 415 516Z" fill="#ccd7bf"/><path d="M303 451L415 516V524L303 459Z" fill="#77937b"/><path d="M303 355L443 274V370L303 451Z" fill="url(#paperFace)"/><path d="M303 355L443 274 438 271 298 352 298 448 303 451Z" fill="#a9bea8"/><g transform="matrix(-1 0.58 0 1 443 274)"><path d="M8 8H132V86H8Z" fill="none" stroke="#769580" stroke-width="0.9"/><path d="M25 13V91M51 13V91M77 13V91M103 13V91M129 13V91" fill="none" stroke="#365c45" stroke-width="2.5"/><path d="M22 12V90M48 12V90M74 12V90M100 12V90M126 12V90" fill="none" stroke="#eef1d6" stroke-width="1"/><rect x="8" y="22" width="8" height="38" fill="#71967a"/><rect x="34" y="22" width="8" height="38" fill="#70957a"/><rect x="60" y="22" width="8" height="38" fill="#b7d3b3"/><rect x="86" y="22" width="8" height="38" fill="#72967b"/><rect x="112" y="22" width="8" height="38" fill="#6f9278"/><path d="M7 70H17M33 70H43M59 70H69M85 70H95M111 70H121" fill="none" stroke="#edf0d5" stroke-width="2"/><path d="M4 3H136M4 94H136" fill="none" stroke="#fff5d9" stroke-width="1.2"/></g><path d="M213 303L353 222 443 274 303 355Z" fill="url(#paper)"/><path d="M213 303L303 355V362L213 310Z" fill="#819d86"/><path d="M213 303L353 222 443 274 303 355Z" fill="none" stroke="#faf8df" stroke-width="1.2"/><g transform="matrix(1 0.58 -1 0.58 353 222)"><path d="M7 7H83V133H7Z" fill="none" stroke="#8fab8e" stroke-width="1"/><path d="M16 16H73V40H16ZM16 54H73V78H16ZM16 92H73V123H16Z" fill="#b8c9ae"/><path d="M17 17H72V33H17ZM17 55H72V71H17ZM17 93H72V116H17Z" fill="#e7ead2"/><rect x="29" y="22" width="31" height="6" fill="#5a7a60"/><rect x="29" y="60" width="31" height="6" fill="#5a7a60"/><rect x="29" y="101" width="31" height="8" fill="#5a7a60"/><path d="M8 45H82M8 84H82" stroke="#89a286" stroke-width="0.8"/><circle cx="10" cy="10" r="1.8" fill="#779578"/><circle cx="80" cy="130" r="1.8" fill="#779578"/></g><path d="M219 294L357 214 432 258 294 338Z" fill="#0b2118" opacity="0.23"/><path d="M215 278L353 198 428 242 290 322Z" fill="#e6e8d1"/><path d="M215 278L290 322V328L215 284Z" fill="#8eaa8e"/><path d="M290 322L428 242V248L290 328Z" fill="#adbf9f"/><path d="M215 278L353 198 428 242 290 322Z" fill="none" stroke="#fff8dc" stroke-width="1.1"/><g transform="matrix(1 0.58 -1 0.58 353 198)"><path d="M8 8H66V130H8Z" fill="none" stroke="#92a989" stroke-width="0.9"/><path d="M18 19H56V40H18ZM18 56H56V77H18ZM18 93H56V119H18Z" fill="#789575"/><path d="M19 23H54V39H19ZM19 60H54V76H19ZM19 97H54V118H19Z" fill="#bccbb0"/><path d="M24 20H51M24 57H51M24 94H51" stroke="#385f43" stroke-width="1.3"/><path d="M6 47H69M6 84H69" stroke="#b0bea0" stroke-width="0.8"/><circle cx="12" cy="11" r="1.6" fill="#7e9878"/><circle cx="61" cy="126" r="1.6" fill="#7e9878"/></g><path d="M303 355V451L415 516" fill="none" stroke="#f2f1d5" stroke-width="1.5"/><path d="M312 446L417 507 546 432" fill="none" stroke="#8ca98a" stroke-width="0.9"/><g transform="matrix(1 0.58 -1 0.58 505 363)" fill="#071610"><rect x="55" y="8" width="25" height="234"/><rect x="86" y="8" width="25" height="234"/><rect x="117" y="8" width="25" height="234"/><rect x="148" y="8" width="25" height="234"/><rect x="179" y="8" width="25" height="234"/><rect x="210" y="8" width="25" height="234"/></g><g transform="matrix(1 0.58 -1 0.58 505 356)"><rect x="55" y="8" width="25" height="234" fill="#dce2c9"/><rect x="86" y="8" width="25" height="234" fill="#c0d6b6"/><rect x="117" y="8" width="25" height="234" fill="#e3e7cf"/><rect x="148" y="8" width="25" height="234" fill="#a8dab5"/><rect x="179" y="8" width="25" height="234" fill="#e0e5cd"/><rect x="210" y="8" width="25" height="234" fill="#c3d8b9"/><g fill="#eff3d7"><path d="M55 8H58V242H55ZM117 8H120V242H117ZM179 8H182V242H179Z"/><path d="M86 8H88V242H86ZM148 8H150V242H148ZM210 8H212V242H210Z"/></g><g fill="#557753"><path d="M77 8H80V242H77ZM108 8H111V242H108ZM139 8H142V242H139ZM170 8H173V242H170ZM201 8H204V242H201ZM232 8H235V242H232Z"/></g><g fill="#203e2c"><rect x="61" y="27" width="12" height="44" rx="2"/><rect x="92" y="27" width="12" height="26" rx="2"/><rect x="123" y="27" width="12" height="44" rx="2"/><rect x="154" y="27" width="12" height="26" rx="2"/><rect x="185" y="27" width="12" height="44" rx="2"/><rect x="216" y="27" width="12" height="26" rx="2"/><rect x="61" y="145" width="12" height="50" rx="2"/><rect x="92" y="155" width="12" height="40" rx="2"/><rect x="123" y="145" width="12" height="50" rx="2"/><rect x="154" y="155" width="12" height="40" rx="2"/><rect x="185" y="145" width="12" height="50" rx="2"/><rect x="216" y="155" width="12" height="40" rx="2"/></g><g fill="#78bd8b"><rect x="61" y="100" width="12" height="22"/><rect x="92" y="65" width="12" height="57"/><rect x="216" y="65" width="12" height="57"/><rect x="61" y="212" width="12" height="17"/><rect x="92" y="212" width="12" height="17"/><rect x="123" y="212" width="12" height="17"/><rect x="154" y="212" width="12" height="17"/><rect x="185" y="212" width="12" height="17"/><rect x="216" y="212" width="12" height="17"/></g><g fill="none" stroke="#a6c696" stroke-width="1"><path d="M63 29V69M94 29V51M125 29V69M156 29V51M187 29V69M218 29V51"/><path d="M63 147V193M94 157V193M125 147V193M156 157V193M187 147V193M218 157V193"/></g><g fill="none" stroke="#66835d" stroke-width="0.85"><path d="M57 83H77M57 133H77M57 202H77M57 236H77"/><path d="M88 133H108M88 202H108M88 236H108"/><path d="M119 133H139M119 202H139M119 236H139"/><path d="M150 133H170M150 202H170M150 236H170"/><path d="M181 133H201M181 202H201M181 236H201"/><path d="M212 133H232M212 202H232M212 236H232"/></g><g fill="#37573c" stroke="#9bb88f" stroke-width="0.7"><circle cx="67" cy="17" r="2.3"/><circle cx="98" cy="17" r="2.3"/><circle cx="129" cy="17" r="2.3"/><circle cx="160" cy="17" r="2.3"/><circle cx="191" cy="17" r="2.3"/><circle cx="222" cy="17" r="2.3"/></g><path d="M120 60H196V86H184V101H196V140H120V116H132V100H120Z" fill="#081a13" stroke="#a0c897" stroke-width="1.2"/><path d="M121 61H195V72H137V101H132V115H137V139H121V117H133V99H121Z" fill="#193c28"/><path d="M139 80H177V126H139Z" fill="#0a2116" stroke="#477450" stroke-width="1"/><rect x="144" y="85" width="8" height="35" fill="#507958"/><rect x="161" y="85" width="8" height="35" fill="#568e62"/><path d="M141 128H174M141 132H174" stroke="#54835a" stroke-width="1"/><path d="M194 106V137H140" fill="none" stroke="#385f3f" stroke-width="1"/></g><g fill="#123823" stroke="#d1e9c2" stroke-width="1"><ellipse cx="565" cy="460" rx="5.7" ry="3.1"/><ellipse cx="641" cy="504" rx="5.7" ry="3.1"/><ellipse cx="561" cy="551" rx="5.7" ry="3.1"/><ellipse cx="485" cy="507" rx="5.7" ry="3.1"/></g><g fill="none" stroke-width="1.2"><path d="M565 457V382M641 501V426" stroke="#b3d0aa" stroke-dasharray="3 6" opacity="0.45"/><path d="M485 504V428M561 548V472" stroke="#b9cfaa" opacity="0.75"/></g><path d="M475 432L558 480 646 429 646 442 558 493 475 445Z" fill="#071a12" opacity="0.17"/><g transform="matrix(1 0.58 -1 0.58 505 277)"><path d="M120 60H196V86H184V101H196V140H120V116H132V100H120ZM144 80H174V117H144Z" fill="#8e412b" fill-rule="evenodd"/></g><path d="M485 416L561 460V472L485 428Z" fill="#c86241"/><path d="M641 414L615 429V441L641 426Z" fill="#a84931"/><path d="M600 437L561 460V472L600 449Z" fill="#a84b32"/><path d="M569 395L599 412V424L569 407Z" fill="#9b492f"/><path d="M569 395L532 416V428L569 407Z" fill="#d57c4e"/><g transform="matrix(1 0.58 -1 0.58 505 265)"><path d="M120 60H196V86H184V101H196V140H120V116H132V100H120ZM144 80H174V117H144Z" fill="url(#orange)" fill-rule="evenodd" stroke="#ffc394" stroke-width="1.1"/><path d="M125 65H191V80M179 105H190V135H125V121M137 97V74H179V121H139" fill="none" stroke="#b85b3b" stroke-width="0.9"/><path d="M128 68H187M125 130V135H173" fill="none" stroke="#ffcc99" stroke-width="1.2"/><circle cx="130" cy="77" r="3.4" fill="#713d2b"/><circle cx="185" cy="126" r="3.4" fill="#713d2b"/><circle cx="130" cy="77" r="1.65" fill="#f3deb1"/><circle cx="185" cy="126" r="1.65" fill="#f3deb1"/><path d="M127 87V94M185 69V76M151 126H161" fill="none" stroke="#edb082" stroke-width="2"/></g><path d="M485 416L561 460 600 437" fill="none" stroke="#ffc696" stroke-width="1.1"/><path d="M805 343L815 349V604L805 598Z" fill="#183f31"/><path d="M713 651L805 598 815 604 723 657Z" fill="#183e2d"/><path d="M783 396L791 401 743 429 735 424Z" fill="#234e3a"/><path d="M783 396L791 401V576L783 571Z" fill="#1b402e"/><path d="M735 424L743 429V604L735 599Z" fill="#92e5b2"/><path d="M805 343L713 396V651L805 598ZM783 396L735 424V599L783 571Z" fill="url(#wall)" fill-rule="evenodd"/><path d="M713 396L722 391V646L713 651Z" fill="#8cf6bf"/><path d="M795 353L801 350V595L795 598Z" fill="#277e5c"/><path d="M783 396L735 424V599L783 571Z" fill="none" stroke="#b0f4c6" stroke-width="1.15"/><path d="M739 427V592L780 568" fill="none" stroke="#154c33" stroke-width="1.4"/><path d="M725 408V631L793 592" fill="none" stroke="#339a6e" stroke-width="1.1"/><path d="M713 396V651L805 598" fill="none" stroke="#b6ffd2" stroke-width="1.3"/><path d="M722 471L731 466V486L722 491Z" fill="#d5f5ce"/><path d="M722 549L731 544V564L722 569Z" fill="#d5f5ce"/><path d="M725 474V484M725 552V562" stroke="#489a69" stroke-width="1.1"/><path d="M750 381L775 366V380L750 395Z" fill="#1d7250"/><path d="M753 382L771 372V377L753 387Z" fill="#95dfaa"/><path d="M750 616L778 600V609L750 625Z" fill="#24724e"/><path d="M754 616L774 604" stroke="#a9ecc0" stroke-width="1"/><g fill="#bcf2c6" stroke="#27754f" stroke-width="1"><ellipse cx="726" cy="404" rx="2.6" ry="4.1" transform="rotate(30 726 404)"/><ellipse cx="793" cy="366" rx="2.6" ry="4.1" transform="rotate(30 793 366)"/><ellipse cx="726" cy="632" rx="2.6" ry="4.1" transform="rotate(30 726 632)"/><ellipse cx="793" cy="592" rx="2.6" ry="4.1" transform="rotate(30 793 592)"/></g><path d="M413 222L713 396V416L413 242Z" fill="#2e8863"/><path d="M505 169L413 222V242L505 189Z" fill="url(#end)"/><path d="M513 199L753 338V354L513 215Z" fill="#315d45"/><path d="M513 199L465 227V243L513 215Z" fill="#66a77c"/><path d="M513 212L744 346" stroke="#b5dbaa" stroke-width="1" opacity="0.5"/><g transform="matrix(1 0.58 -1 0.58 505 169)"><path d="M0 0H300V92H0ZM30 22V70H270V22Z" fill="url(#mint)" fill-rule="evenodd" stroke="#bbffda" stroke-width="1.2"/><path d="M7 7H293V85H7ZM23 16V77H278V16Z" fill="none" stroke="#298c64" stroke-width="0.9" opacity="0.62"/><path d="M34 12H265M35 82H265" fill="none" stroke="#c8ffdb" stroke-width="1.5"/><path d="M33 24H267M33 68H267" fill="none" stroke="#367953" stroke-width="0.85"/><rect x="7" y="17" width="11" height="58" fill="#dbf8cd"/><rect x="282" y="17" width="11" height="58" fill="#b0edbd"/><path d="M10 19V73M285 19V73" stroke="#739f75" stroke-width="1"/><path d="M18 21V71M293 21V71" stroke="#f3ffe0" stroke-width="0.8"/><g fill="#286645" stroke="#a8e8b9" stroke-width="0.8"><circle cx="12.5" cy="24" r="2.1"/><circle cx="12.5" cy="68" r="2.1"/><circle cx="287.5" cy="24" r="2.1"/><circle cx="287.5" cy="68" r="2.1"/></g><path d="M59 3V8M67 3V8M75 3V8M225 84V89M233 84V89M241 84V89" stroke="#48a577" stroke-width="1"/><path d="M111 1V15M114 1V15M185 77V91M188 77V91" stroke="#a3f6c4" stroke-width="1"/></g><path d="M413 222L713 396" fill="none" stroke="#ccffdf" stroke-width="1.9"/><path d="M420 235L706 401" stroke="#6cd49b" stroke-width="1"/><path d="M505 169L413 222V241" fill="none" stroke="#e1ffe1" stroke-width="1.4"/><path d="M428 225L455 209V219L428 235Z" fill="#244d35"/><path d="M431 226L451 214V217L431 229Z" fill="#c1e8bc"/><path d="M480 195L493 187V195L480 203Z" fill="#38744e"/><path d="M482 195L490 191" stroke="#e1ffd5" stroke-width="1"/><path d="M538 296L559 308V316L538 304Z" fill="#c4eec0"/><path d="M542 300L555 307" stroke="#527d53" stroke-width="1.2"/><path d="M665 370L682 380V388L665 378Z" fill="#bee8ba"/><path d="M669 374L678 379" stroke="#527d53" stroke-width="1.2"/><g fill="none" stroke-linecap="round"><path d="M805 344L805 598" stroke="#5bbb84" stroke-width="1.1"/><path d="M255 544L485 677" stroke="#f1f1d0" stroke-width="1.3"/><path d="M485 677L711 546" stroke="#c8e4b8" stroke-width="1"/><path d="M282 562L297 570M362 608L377 616M442 654L457 662" stroke="#54764f" stroke-width="2"/></g><g fill="#b6d0ac" stroke="#325638" stroke-width="0.8"><ellipse cx="274" cy="564" rx="3" ry="1.8" transform="rotate(30 274 564)"/><ellipse cx="354" cy="610" rx="3" ry="1.8" transform="rotate(30 354 610)"/><ellipse cx="434" cy="656" rx="3" ry="1.8" transform="rotate(30 434 656)"/></g><path d="M786 630L829 655 800 672" fill="none" stroke="#88b897" stroke-width="1" opacity="0.3"/><path d="M797 628L840 653 811 670" fill="none" stroke="#88b897" stroke-width="1" opacity="0.15"/><path d="M94 748L143 776M253 840L302 868" fill="none" stroke="#9bc4a2" stroke-width="1" opacity="0.22"/><path d="M86 753L135 781M245 845L294 873" fill="none" stroke="#9bc4a2" stroke-width="1" opacity="0.1"/></svg>